<svg width="373" height="38" viewBox="0 0 373 38" fill="none" xmlns="http://www.w3.org/2000/svg">
<path fill-rule="evenodd" clip-rule="evenodd" d="M19.9772 8.76121C19.8634 8.98583 19.6872 9.29631 19.4755 9.63646C19.0554 10.3353 18.1127 11.8463 17.3769 12.9889C16.6407 14.1321 15.4616 15.8193 14.7459 16.7032C14.3899 17.1545 14.0384 17.5705 13.7609 17.8763C13.6223 18.0292 13.5015 18.1551 13.4075 18.2443C13.3606 18.2888 13.3195 18.325 13.2856 18.351C13.2687 18.364 13.2527 18.3751 13.238 18.3836C13.2245 18.3914 13.2074 18.3998 13.1892 18.4026C13.1828 18.4036 13.1696 18.408 13.1488 18.4205C13.1288 18.4326 13.105 18.4502 13.0778 18.4734C13.0234 18.5198 12.959 18.5858 12.8895 18.667C12.7506 18.8293 12.5946 19.0485 12.4607 19.2841L12.4599 19.2855C12.3148 19.5251 12.1831 19.7524 12.089 19.9267C12.0734 19.9556 12.0589 19.983 12.0456 20.0087C12.1621 19.8732 12.3215 19.6723 12.4966 19.439C13.006 18.7369 13.7438 18.2041 16.2745 16.7294L16.2748 16.7292C18.0154 15.7305 20.0206 14.6116 20.7312 14.245L20.7316 14.2448C21.0966 14.0601 21.4583 13.8858 21.7487 13.7545C21.8939 13.6888 22.0216 13.6338 22.1233 13.5935C22.2211 13.5548 22.3002 13.5275 22.3473 13.5198C22.4051 13.5061 22.4599 13.4988 22.5023 13.5097C22.5258 13.5157 22.55 13.5285 22.5664 13.5529C22.5824 13.5768 22.5854 13.6039 22.5832 13.6279C22.579 13.673 22.5543 13.7269 22.5193 13.7863C22.4832 13.8476 22.4313 13.9226 22.364 14.0124C22.2686 14.151 22.0042 14.432 21.657 14.7708C21.3071 15.1122 20.8686 15.5166 20.4223 15.9023L20.4217 15.9028C19.5275 16.6539 17.8736 17.9769 16.7289 18.8063C16.1574 19.231 15.5488 19.6416 15.0301 19.9641C14.5134 20.2853 14.0805 20.5226 13.863 20.5968L13.8626 20.5969C13.6379 20.6717 13.3942 20.719 13.1767 20.737C12.9611 20.7549 12.7638 20.7448 12.6354 20.6989C12.5265 20.66 12.3845 20.6388 12.2439 20.6388C12.1027 20.6387 11.9691 20.66 11.8754 20.7011C11.7847 20.741 11.6547 20.8567 11.5163 21.0209C11.3799 21.1827 11.2416 21.3842 11.133 21.5857C11.022 21.7918 10.916 21.9684 10.8335 22.0872C10.7927 22.146 10.7558 22.1932 10.7258 22.2228C10.7119 22.2365 10.6941 22.2519 10.6742 22.2598C10.6637 22.264 10.6466 22.2685 10.627 22.2633C10.6081 22.2582 10.5949 22.2462 10.5868 22.2334C10.579 22.2223 10.576 22.2108 10.5748 22.2033C10.5732 22.1936 10.5735 22.1844 10.5741 22.177C10.5754 22.162 10.5793 22.1452 10.5841 22.1282C10.5941 22.0937 10.6112 22.0484 10.6339 21.9945C10.6796 21.8862 10.7507 21.7366 10.8412 21.5566C11.0223 21.1962 11.2827 20.71 11.5765 20.1795L11.5769 20.1788C11.912 19.5935 12.1728 19.09 12.3403 18.7031C12.424 18.5095 12.4838 18.3465 12.5179 18.2178C12.5349 18.1535 12.5452 18.0989 12.5491 18.0542C12.5531 18.0093 12.5503 17.9777 12.544 17.957C12.5049 17.8413 12.4987 17.6443 12.5144 17.4266C12.5304 17.2055 12.5697 16.9536 12.6276 16.7237C12.7433 16.264 13.1032 15.4123 13.4203 14.8269C13.7393 14.2382 14.515 13.205 15.1416 12.5328L15.1423 12.5321C15.7713 11.8799 17.0809 10.6684 18.0654 9.84366L18.066 9.84318C18.5593 9.44083 19.0269 9.06706 19.3811 8.79227C19.5582 8.65492 19.7073 8.54201 19.8173 8.46255C19.8722 8.42287 19.9179 8.39111 19.9528 8.3687C19.9702 8.35754 19.9856 8.34821 19.9985 8.34128C20.009 8.33568 20.0251 8.3275 20.041 8.32507C20.0509 8.32356 20.0641 8.32357 20.0779 8.32926C20.0924 8.33521 20.1029 8.34546 20.1096 8.35658C20.1211 8.37571 20.1209 8.39626 20.1203 8.40685C20.1188 8.43093 20.1102 8.4609 20.0991 8.49208C20.0761 8.55684 20.0339 8.64928 19.9772 8.76121ZM11.9479 20.2251C11.9479 20.2251 11.9479 20.2252 11.948 20.2248L11.9479 20.2251ZM19.9761 8.49144C19.9537 8.54684 19.9195 8.62041 19.8745 8.70917C19.7626 8.93001 19.5881 9.23759 19.3775 9.57594L19.377 9.5767C18.9579 10.2741 18.0156 11.7844 17.2801 12.9266C16.5449 14.0682 15.3681 15.7517 14.6562 16.6311L14.6557 16.6317C14.3009 17.0813 13.9511 17.4954 13.6757 17.7989C13.5378 17.9508 13.4192 18.0744 13.3282 18.1608C13.2826 18.2041 13.2448 18.2372 13.2155 18.2597C13.2008 18.271 13.1892 18.2789 13.1804 18.2839C13.174 18.2876 13.1708 18.2888 13.1704 18.289C13.1429 18.2935 13.1153 18.3063 13.0894 18.3219C13.0623 18.3383 13.0332 18.36 13.003 18.3858C12.9425 18.4374 12.8739 18.5082 12.802 18.5921C12.6583 18.7601 12.4983 18.9851 12.361 19.2265C12.2154 19.4669 12.0829 19.6957 11.9877 19.872C11.9401 19.9602 11.9014 20.036 11.875 20.094C11.8619 20.1228 11.8513 20.1483 11.8441 20.1692C11.8406 20.1797 11.8375 20.19 11.8355 20.1996C11.8338 20.2081 11.8317 20.2212 11.8337 20.2349C11.8349 20.2431 11.8381 20.2549 11.8468 20.2662C11.8564 20.2785 11.8696 20.2861 11.8835 20.2891C11.9064 20.294 11.9254 20.2851 11.9323 20.2817C11.9497 20.2731 11.9683 20.2577 11.9855 20.2418C12.0221 20.2083 12.0722 20.1542 12.1314 20.0854C12.2505 19.9472 12.4123 19.7432 12.589 19.5077L12.5896 19.507C13.082 18.8281 13.7959 18.3071 16.3323 16.829C18.0728 15.8303 20.0756 14.7128 20.7837 14.3475C21.1475 14.1634 21.5076 13.9898 21.7961 13.8594C21.9405 13.7941 22.0664 13.7399 22.1657 13.7006C22.2673 13.6603 22.3354 13.638 22.3671 13.6332L22.3695 13.6328L22.3718 13.6323C22.4226 13.6202 22.4527 13.6182 22.4682 13.6202C22.4655 13.6387 22.4525 13.6728 22.4201 13.7279C22.387 13.784 22.3378 13.8554 22.2711 13.9442L22.2704 13.9452L22.2697 13.9463C22.1826 14.0734 21.9266 14.3469 21.5766 14.6884C21.2285 15.028 20.7918 15.4307 20.3474 15.8149C19.4543 16.565 17.8026 17.8861 16.661 18.7133L16.6604 18.7137C16.0915 19.1365 15.4854 19.5454 14.9693 19.8663C14.4512 20.1884 14.0293 20.4183 13.8261 20.4877C13.6105 20.5594 13.376 20.6049 13.1671 20.6223C12.9562 20.6398 12.7789 20.6279 12.6742 20.5905C12.55 20.5461 12.3944 20.5237 12.2439 20.5236C12.094 20.5235 11.9428 20.5458 11.8291 20.5957C11.7123 20.647 11.5678 20.7812 11.4283 20.9467C11.2868 21.1145 11.144 21.3225 11.0317 21.5311C10.9325 21.7152 10.8384 21.8735 10.7628 21.9864C10.8067 21.8872 10.8682 21.7593 10.9441 21.6083C11.1242 21.25 11.3837 20.7654 11.677 20.2357C12.013 19.6488 12.2761 19.1413 12.446 18.7488C12.5308 18.5526 12.593 18.3838 12.6292 18.2473C12.6472 18.179 12.6591 18.1177 12.6638 18.0643C12.6685 18.0115 12.6665 17.963 12.6538 17.9222L12.6533 17.9207C12.6221 17.8291 12.6136 17.6524 12.6293 17.4349C12.6447 17.2204 12.683 16.9751 12.7392 16.7518C12.8518 16.3049 13.2069 15.4626 13.5216 14.8818C13.8344 14.3043 14.6033 13.2793 15.2255 12.6117C15.8512 11.963 17.1572 10.7547 18.1391 9.93217C18.6319 9.53027 19.0985 9.15722 19.4517 8.88325C19.6284 8.74619 19.7763 8.63421 19.8847 8.55588C19.9196 8.53067 19.9501 8.50912 19.9761 8.49144ZM120.735 8.76121C120.621 8.98585 120.445 9.29637 120.233 9.63655C119.813 10.3354 118.87 11.8463 118.134 12.9889C117.398 14.1322 116.219 15.8194 115.503 16.7033C115.147 17.1545 114.796 17.5705 114.519 17.8763C114.38 18.0292 114.259 18.1551 114.165 18.2443C114.118 18.2888 114.077 18.325 114.043 18.351C114.026 18.364 114.01 18.3751 113.996 18.3836C113.982 18.3914 113.965 18.3998 113.947 18.4026C113.94 18.4036 113.927 18.408 113.906 18.4205C113.886 18.4326 113.863 18.4502 113.835 18.4734C113.781 18.5198 113.717 18.5858 113.647 18.667C113.508 18.8293 113.352 19.0485 113.218 19.2841L113.217 19.2855C113.072 19.5251 112.941 19.7524 112.847 19.9267C112.831 19.9556 112.817 19.983 112.803 20.0086C112.92 19.8732 113.079 19.6723 113.254 19.4389C113.764 18.7368 114.502 18.204 117.032 16.7294L117.032 16.7292C118.773 15.7305 120.778 14.6116 121.489 14.245L121.489 14.2448C121.854 14.0601 122.216 13.8858 122.506 13.7545C122.651 13.6888 122.779 13.6338 122.881 13.5935C122.979 13.5548 123.058 13.5275 123.105 13.5198C123.163 13.5061 123.217 13.4988 123.26 13.5097C123.283 13.5157 123.308 13.5285 123.324 13.5529C123.34 13.5768 123.343 13.6039 123.341 13.6279C123.337 13.673 123.312 13.7269 123.277 13.7863C123.241 13.8476 123.189 13.9227 123.122 14.0124C123.026 14.1511 122.762 14.432 122.415 14.7708C122.065 15.1122 121.626 15.5166 121.18 15.9023L121.179 15.9028C120.285 16.6539 118.631 17.9768 117.487 18.8062C116.915 19.231 116.306 19.6416 115.788 19.9641C115.271 20.2853 114.838 20.5226 114.621 20.5968L114.62 20.5969C114.395 20.6717 114.152 20.719 113.934 20.737C113.719 20.7549 113.521 20.7448 113.393 20.6989C113.284 20.66 113.142 20.6388 113.001 20.6388C112.86 20.6387 112.727 20.66 112.633 20.7011C112.542 20.741 112.412 20.8567 112.274 21.0209C112.138 21.1827 111.999 21.3842 111.891 21.5857C111.78 21.7918 111.674 21.9684 111.591 22.0872C111.55 22.146 111.513 22.1932 111.483 22.2228C111.469 22.2365 111.452 22.2519 111.432 22.2598C111.421 22.264 111.404 22.2685 111.385 22.2633C111.366 22.2582 111.352 22.2462 111.344 22.2334C111.337 22.2223 111.334 22.2108 111.332 22.2033C111.331 22.1936 111.331 22.1844 111.332 22.177C111.333 22.162 111.337 22.1452 111.342 22.1282C111.352 22.0937 111.369 22.0484 111.391 21.9945C111.437 21.8862 111.508 21.7366 111.599 21.5566C111.78 21.1962 112.04 20.71 112.334 20.1795L112.334 20.1788C112.67 19.5935 112.93 19.09 113.098 18.7031C113.182 18.5095 113.241 18.3465 113.275 18.2178C113.292 18.1535 113.303 18.0989 113.307 18.0542C113.311 18.0093 113.308 17.9777 113.302 17.957C113.263 17.8413 113.256 17.6443 113.272 17.4266C113.288 17.2055 113.327 16.9536 113.385 16.7237C113.501 16.264 113.861 15.4123 114.178 14.8269C114.497 14.2382 115.273 13.205 115.899 12.5328L115.9 12.5321C116.529 11.8799 117.839 10.6684 118.823 9.84366L118.824 9.84318C119.317 9.44083 119.784 9.06706 120.139 8.79227C120.316 8.65492 120.465 8.54201 120.575 8.46255C120.63 8.42287 120.676 8.39111 120.71 8.3687C120.728 8.35754 120.743 8.34821 120.756 8.34128C120.767 8.33568 120.783 8.3275 120.799 8.32507C120.808 8.32356 120.822 8.32357 120.835 8.32926C120.85 8.33521 120.86 8.34546 120.867 8.35658C120.879 8.37571 120.878 8.39626 120.878 8.40685C120.876 8.43093 120.868 8.4609 120.857 8.49208C120.834 8.55684 120.792 8.64928 120.735 8.76121ZM120.734 8.49144C120.711 8.54684 120.677 8.62041 120.632 8.70917C120.52 8.93001 120.346 9.23759 120.135 9.57594L120.135 9.5767C119.715 10.2741 118.773 11.7844 118.038 12.9266C117.302 14.0682 116.126 15.7517 115.414 16.6311L115.413 16.6317C115.058 17.0813 114.709 17.4954 114.433 17.7989C114.295 17.9508 114.177 18.0744 114.086 18.1608C114.04 18.2041 114.002 18.2372 113.973 18.2597C113.958 18.271 113.947 18.2789 113.938 18.2839C113.932 18.2876 113.928 18.2888 113.928 18.289C113.901 18.2935 113.873 18.3063 113.847 18.3219C113.82 18.3383 113.791 18.36 113.761 18.3858C113.7 18.4374 113.631 18.5082 113.56 18.5921C113.416 18.7601 113.256 18.9851 113.119 19.2265C112.973 19.4669 112.841 19.6957 112.745 19.872C112.698 19.9602 112.659 20.036 112.633 20.094C112.619 20.1228 112.609 20.1483 112.602 20.1692C112.598 20.1797 112.595 20.19 112.593 20.1996C112.591 20.2081 112.589 20.2212 112.591 20.2349C112.592 20.2431 112.596 20.2549 112.604 20.2662C112.614 20.2785 112.627 20.2861 112.641 20.2891C112.664 20.294 112.683 20.2851 112.69 20.2817C112.707 20.2731 112.726 20.2577 112.743 20.2418C112.78 20.2083 112.83 20.1542 112.889 20.0854C113.008 19.9472 113.17 19.7432 113.347 19.5077L113.347 19.507C113.84 18.8281 114.553 18.3071 117.09 16.8289C118.831 15.8301 120.834 14.7126 121.541 14.3474C121.905 14.1633 122.265 13.9898 122.554 13.8594C122.698 13.7941 122.824 13.7399 122.923 13.7006C123.025 13.6603 123.093 13.638 123.125 13.6332L123.127 13.6328L123.129 13.6323C123.18 13.6202 123.21 13.6182 123.226 13.6202C123.223 13.6387 123.21 13.6728 123.178 13.7279C123.145 13.784 123.095 13.8554 123.029 13.9442L123.028 13.9452L123.027 13.9463C122.94 14.0734 122.684 14.3469 122.334 14.6884C121.986 15.028 121.549 15.4307 121.105 15.8149C120.212 16.5649 118.56 17.8861 117.419 18.7133L117.418 18.7137C116.849 19.1365 116.243 19.5454 115.727 19.8663C115.209 20.1884 114.787 20.4184 114.584 20.4878C114.368 20.5594 114.134 20.6049 113.925 20.6223C113.714 20.6398 113.536 20.6279 113.432 20.5905C113.308 20.5461 113.152 20.5237 113.002 20.5236C112.852 20.5235 112.7 20.5458 112.587 20.5957C112.47 20.647 112.325 20.7812 112.186 20.9467C112.044 21.1145 111.902 21.3225 111.789 21.5311C111.69 21.7152 111.596 21.8735 111.52 21.9864C111.564 21.8872 111.626 21.7593 111.702 21.6083C111.882 21.2499 112.141 20.7652 112.435 20.2354C112.771 19.6487 113.034 19.1412 113.204 18.7488C113.288 18.5526 113.351 18.3838 113.387 18.2473C113.405 18.179 113.417 18.1177 113.421 18.0643C113.426 18.0115 113.424 17.963 113.411 17.9222L113.411 17.9207C113.38 17.8291 113.371 17.6524 113.387 17.4349C113.402 17.2204 113.441 16.9751 113.497 16.7518C113.609 16.3049 113.964 15.4626 114.279 14.8818C114.592 14.3043 115.361 13.2793 115.983 12.6118C116.609 11.9631 117.915 10.7547 118.897 9.93212C119.389 9.53024 119.856 9.15721 120.209 8.88325C120.386 8.74619 120.534 8.63421 120.642 8.55588C120.677 8.53067 120.708 8.50912 120.734 8.49144ZM8.85412 9.02699C8.85332 9.02833 8.8523 9.0303 8.8511 9.03313L8.85057 9.0344L8.84997 9.03563C8.84506 9.04589 8.83766 9.06816 8.82851 9.10523C8.81966 9.14108 8.80999 9.18727 8.79969 9.2429C8.77911 9.35408 8.75639 9.50081 8.73295 9.67355C8.68609 10.0189 8.63658 10.4663 8.5955 10.9374C8.51342 11.8787 8.45531 13.6685 8.43819 14.9189C8.44073 16.1643 8.56231 18.0842 8.70165 19.1695C8.82728 20.0936 8.9048 20.5849 9.01459 20.8977C9.0688 21.0521 9.13033 21.1611 9.20868 21.2564C9.28775 21.3525 9.38546 21.4365 9.51575 21.54C9.67779 21.6669 9.83328 21.8198 9.95512 21.9683C10.0745 22.1137 10.1669 22.2612 10.1964 22.379C10.2164 22.4367 10.2203 22.5112 10.2145 22.5916C10.2086 22.6747 10.1918 22.7697 10.1667 22.8698C10.1166 23.0698 10.0319 23.2947 9.92783 23.4925C9.74092 23.8572 9.29457 24.7758 8.98254 25.5151L8.98225 25.5157C8.8235 25.8787 8.653 26.1996 8.51008 26.4223C8.4389 26.5332 8.37315 26.6221 8.31792 26.6797C8.29073 26.7081 8.26304 26.7322 8.23596 26.7466C8.2113 26.7598 8.16992 26.7733 8.13204 26.7479C8.0854 26.7199 8.06194 26.6683 8.05051 26.6166C8.0385 26.5623 8.03694 26.4961 8.04341 26.4239C8.05638 26.2788 8.10271 26.0979 8.17837 25.9142L8.17841 25.9141L8.23165 25.936L8.17837 25.9142C8.2792 25.6668 8.32581 25.4593 8.31782 25.1902C8.30974 24.9184 8.24594 24.5821 8.12157 24.0765L8.1217 24.077L8.17737 24.0623L8.12146 24.0761L8.12157 24.0765C7.94107 23.3931 7.17968 21.0756 6.39812 18.8974L6.39795 18.8969C6.01719 17.8069 5.62324 16.7636 5.29647 15.9552C5.13307 15.551 4.98661 15.2058 4.86711 14.9432C4.7466 14.6784 4.65595 14.503 4.60402 14.4332L4.65012 14.3987L4.60393 14.4331L4.31399 14.0461C4.31192 13.9857 4.30996 13.9249 4.3081 13.8637L4.25055 13.8654L4.20448 13.8999L4.31399 14.0461C4.39908 16.5303 4.66766 18.334 5.15097 20.5588L5.15108 20.5593C5.3549 21.5375 5.5917 22.5354 5.80743 23.3558C6.02351 24.1775 6.21724 24.8163 6.33483 25.0806L6.33458 25.08L6.28247 25.1045L6.33506 25.0811L6.33483 25.0806C6.65384 25.7595 6.94138 26.1149 7.39398 26.3118L7.39492 26.3122L7.39584 26.3127C7.57351 26.3976 7.74548 26.5139 7.87739 26.6346C7.94337 26.6949 8.00033 26.7573 8.04307 26.8184C8.08534 26.8789 8.11628 26.9417 8.12522 27.0026C8.12985 27.0341 8.1253 27.082 8.11685 27.1369C8.10799 27.1944 8.09348 27.2675 8.07404 27.3535C8.03513 27.5258 7.97583 27.7532 7.90045 28.019C7.74969 28.5507 7.53401 29.2382 7.28684 29.9502L7.287 29.9498L7.23228 29.9318L7.28667 29.9507L7.28684 29.9502C7.24576 30.0756 7.20497 30.1979 7.16468 30.3164L7.15741 30.2971L7.10353 30.3174L7.15803 30.3359C7.16024 30.3294 7.16246 30.3229 7.16468 30.3164L7.31205 30.7078C7.29318 30.7401 7.27302 30.7779 7.25137 30.8222L7.30311 30.8474L7.35699 30.8272L7.31205 30.7078C7.33889 30.6619 7.3631 30.6271 7.38522 30.6007C7.38494 30.6016 7.38467 30.6024 7.38441 30.6031C7.38411 30.6039 7.38395 30.6043 7.38395 30.6043C7.38395 30.6043 7.38409 30.604 7.38437 30.6034L7.38457 30.603C7.38498 30.6023 7.38575 30.6009 7.38694 30.5992C7.38745 30.5984 7.3882 30.5974 7.38922 30.5962C7.39079 30.5943 7.393 30.5919 7.39591 30.5894L7.39226 30.5925L7.38922 30.5962C7.38792 30.5977 7.38654 30.5992 7.38522 30.6007C7.38625 30.5976 7.38746 30.5935 7.38911 30.5879L7.3893 30.5873C7.39106 30.5813 7.39345 30.5732 7.39605 30.5661C7.3974 30.5624 7.39935 30.5574 7.40197 30.5524C7.40239 30.5516 7.40301 30.5504 7.40387 30.5489C7.40301 30.5516 7.40214 30.5543 7.40124 30.557L7.45591 30.5751L7.42064 30.5295C7.41203 30.5362 7.4067 30.5441 7.40387 30.5489C7.42416 30.486 7.4364 30.4299 7.44761 30.372C7.4502 30.3586 7.45276 30.3451 7.45536 30.3312C7.46403 30.2851 7.47322 30.2363 7.48599 30.1832C7.48594 30.1855 7.48591 30.1877 7.48589 30.1899L7.54346 30.1905L7.48753 30.1768C7.48701 30.1789 7.4865 30.1811 7.48599 30.1832C7.48889 30.0433 7.54035 29.7917 7.63079 29.4599C7.68317 29.2677 7.7492 29.0466 7.8278 28.8015L7.9311 28.8471C7.93341 28.8431 7.93568 28.8391 7.9379 28.8353C7.85954 29.0795 7.79387 29.2994 7.74189 29.4902C7.6496 29.8288 7.60221 30.0695 7.60103 30.191L7.60097 30.1977L7.59939 30.2042C7.58661 30.2565 7.57778 30.3034 7.56886 30.3508C7.56617 30.3651 7.56348 30.3794 7.56066 30.3939C7.5486 30.4562 7.5347 30.5201 7.51058 30.5931L7.50507 30.6098L7.50206 30.6121C7.50289 30.6094 7.50358 30.6073 7.5042 30.6056C7.50452 30.6047 7.50459 30.6046 7.50459 30.6046C7.50459 30.6046 7.50437 30.6051 7.50407 30.6056C7.5037 30.6064 7.50276 30.6081 7.50116 30.6103C7.49972 30.6123 7.49652 30.6164 7.49118 30.6206L7.50206 30.6121C7.50135 30.6144 7.50054 30.6172 7.49958 30.6204L7.4993 30.6214C7.49756 30.6273 7.49522 30.6353 7.49272 30.6422C7.49138 30.6459 7.4895 30.6507 7.48699 30.6557C7.48558 30.6584 7.48191 30.6655 7.4752 30.6727C7.47562 30.6722 7.47604 30.6717 7.47645 30.6712L7.4328 30.6337L7.46969 30.6779C7.47172 30.6762 7.47355 30.6744 7.4752 30.6727C7.44585 30.7072 7.40631 30.7673 7.35485 30.8727L7.29626 30.9927L7.04237 30.3183L7.04903 30.2988C7.09137 30.1745 7.13431 30.046 7.17757 29.9139L7.17789 29.913C7.42448 29.2026 7.63953 28.5171 7.78967 27.9876C7.86475 27.7228 7.92345 27.4976 7.96172 27.3282C7.98087 27.2434 7.99475 27.1732 8.00303 27.1194C8.01172 27.063 8.01306 27.0314 8.01129 27.0193C8.006 26.9833 7.98586 26.9375 7.94871 26.8844C7.91204 26.832 7.86125 26.7759 7.79966 26.7195C7.67666 26.607 7.5146 26.4972 7.3471 26.417C7.34742 26.4171 7.34773 26.4173 7.34804 26.4174L7.37101 26.3646L7.34618 26.4166C7.34649 26.4167 7.34679 26.4168 7.3471 26.417C6.85666 26.2033 6.55361 25.8171 6.23035 25.129L6.22987 25.1279C6.10783 24.854 5.91181 24.2055 5.69607 23.3851C5.47985 22.5628 5.24261 21.5631 5.0384 20.583L5.03845 20.5833L5.09471 20.571L5.03835 20.5828L5.0384 20.583C4.54212 18.2986 4.2713 16.4544 4.19301 13.8671L4.1875 13.6852L4.6963 14.3643C4.75694 14.4458 4.85255 14.6332 4.97192 14.8955C5.09235 15.1602 5.23948 15.5069 5.40323 15.912C5.73073 16.7222 6.1253 17.7672 6.50659 18.8587L6.5065 18.8585L6.45231 18.8779L6.50666 18.859L6.50659 18.8587C7.28824 21.0372 8.05135 23.3594 8.23303 24.0476L8.23328 24.0486C8.35781 24.5547 8.42444 24.9016 8.43292 25.1868C8.44147 25.4748 8.39074 25.6982 8.28497 25.9577L8.28489 25.9579C8.21257 26.1335 8.16982 26.303 8.1581 26.4341C8.15222 26.4999 8.15441 26.5532 8.16294 26.5918C8.16932 26.6206 8.17793 26.6358 8.18469 26.6434C8.18366 26.644 8.18267 26.6446 8.18174 26.6451C8.17927 26.6464 8.17771 26.647 8.17691 26.6473C8.17873 26.6469 8.18433 26.6461 8.19146 26.6495C8.1932 26.6503 8.19504 26.6514 8.19694 26.6528L8.19435 26.6509L8.19157 26.6493C8.18973 26.6482 8.18736 26.6464 8.18469 26.6434C8.19588 26.6367 8.21261 26.6232 8.23477 26.6001C8.28237 26.5504 8.34343 26.4688 8.41317 26.3601C8.55205 26.1437 8.71974 25.8286 8.8766 25.4699L8.87645 25.4703L8.9295 25.4927L8.87675 25.4696L8.8766 25.4699C9.1901 24.7272 9.63779 23.806 9.82548 23.4398L9.82577 23.4392C9.92565 23.2494 10.0071 23.033 10.055 22.8418C10.079 22.7462 10.0943 22.658 10.0997 22.5833C10.1051 22.5074 10.0999 22.4508 10.087 22.415L10.0859 22.4121L10.0852 22.4091C10.0629 22.3172 9.98416 22.1851 9.86611 22.0413C9.74958 21.8994 9.60006 21.7523 9.44457 21.6305L9.44424 21.6303C9.31321 21.5261 9.20715 21.4358 9.11975 21.3295C9.0316 21.2224 8.96393 21.101 8.90594 20.9358C8.79136 20.6094 8.71253 20.1043 8.58751 19.1848L8.58746 19.1844C8.44743 18.0938 8.32556 16.1685 8.32304 14.9187L8.32303 14.9178C8.34016 13.6669 8.39831 11.8733 8.48078 10.9274C8.52199 10.4548 8.5717 10.0056 8.61885 9.65807C8.64242 9.48438 8.66541 9.33564 8.68647 9.22193C8.69699 9.16511 8.70712 9.1165 8.71671 9.07764C8.72583 9.04071 8.73532 9.00888 8.74555 8.98709C8.76235 8.94819 8.79409 8.91532 8.84233 8.91154C8.88492 8.90821 8.92425 8.92953 8.9556 8.95487C9.01992 9.00686 9.08777 9.10573 9.14839 9.23848C9.16594 9.27691 9.18705 9.35227 9.21128 9.45415C9.23601 9.55812 9.2652 9.69515 9.29819 9.86098C9.3642 10.1927 9.44579 10.6414 9.53792 11.1748C9.72221 12.2417 9.9489 13.6486 10.1778 15.1393L10.1779 15.1394C10.5659 17.7138 10.7669 19.0823 10.8333 19.8944C10.8665 20.3007 10.8664 20.571 10.8381 20.7852C10.8097 21.0005 10.7532 21.1565 10.6776 21.3335C10.5982 21.5302 10.5403 21.738 10.512 21.9111C10.4978 21.9978 10.4912 22.0744 10.4927 22.1357C10.4941 22.1983 10.5038 22.2366 10.5147 22.255C10.532 22.2804 10.5389 22.312 10.5415 22.3419C10.5443 22.3738 10.5428 22.4109 10.5381 22.4514C10.5288 22.5326 10.5058 22.6342 10.4717 22.7488C10.4033 22.9783 10.2881 23.2663 10.1387 23.5589C9.85956 24.116 9.5567 24.7732 9.45714 25.0432C9.4092 25.187 9.39395 25.2887 9.40071 25.3487C9.40407 25.3786 9.412 25.3902 9.41559 25.3936C9.41697 25.395 9.42112 25.399 9.43708 25.3965C9.44357 25.3955 9.46152 25.3879 9.48909 25.361C9.515 25.3358 9.54384 25.2992 9.57254 25.2527C9.62989 25.1599 9.68318 25.0339 9.71097 24.8976C9.74308 24.7401 9.85984 24.5509 10.0082 24.3708C10.158 24.1889 10.3461 24.0089 10.5304 23.8696L10.5318 23.8686L10.5332 23.8677C10.9196 23.6093 12.3288 22.799 13.6487 22.0825C14.9672 21.3459 16.5742 20.5257 17.1909 20.2136L17.1923 20.2129C17.8155 19.9185 18.564 19.6444 19.4153 19.5144L19.5685 19.491L18.9029 20.2689C18.6098 20.6354 17.7045 21.469 16.9182 22.1233C16.1322 22.7992 14.8311 23.7909 14.0284 24.35C13.2284 24.9286 12.2275 25.519 11.8072 25.7037C11.5037 25.8398 11.272 25.9167 11.0402 25.9392C10.8079 25.9617 10.5802 25.9293 10.2854 25.8543L10.2848 25.8542C9.76643 25.717 9.46853 25.732 9.23533 25.8944L9.23447 25.895L9.23358 25.8956C9.21689 25.9064 9.19179 25.9308 9.15884 25.9734C9.12675 26.015 9.09011 26.0699 9.04967 26.1371C8.96883 26.2715 8.87479 26.4519 8.77377 26.6658C8.57181 27.0934 8.34357 27.6515 8.13906 28.2359C8.13461 28.2486 8.13019 28.2613 8.12579 28.274C8.12594 28.2856 8.12657 28.2951 8.12748 28.3027C8.14662 28.295 8.17109 28.2813 8.2006 28.2598C8.24363 28.2284 8.29243 28.1842 8.34405 28.1294C8.44702 28.0203 8.55761 27.8731 8.65204 27.7135C8.88234 27.2867 9.40111 26.8865 10.3015 26.4516C11.0131 26.0846 12.5789 25.3895 13.7668 24.8716C14.9564 24.3529 16.6816 23.6534 17.5933 23.2962L17.5935 23.2961C18.5239 22.9362 19.4668 22.6122 20.1649 22.5256L20.323 22.506L19.7806 23.0839C19.6559 23.2259 19.3671 23.4752 19.0015 23.7631C18.6339 24.0526 18.1846 24.3842 17.7367 24.6909C16.8609 25.3009 15.2061 26.3465 14.0588 27.0174C12.9312 27.6853 11.4898 28.4219 10.8768 28.6552L10.8764 28.6554C10.383 28.8393 10.0875 28.9362 9.82646 28.9529C9.56241 28.9698 9.33769 28.9045 8.98786 28.7796L8.98744 28.7794C8.70173 28.6748 8.50594 28.6248 8.35527 28.6223C8.20964 28.6199 8.10455 28.6619 7.99827 28.7504C7.98477 28.7628 7.9644 28.7899 7.9379 28.8353C7.94971 28.7985 7.9618 28.7612 7.97418 28.7233M8.01627 28.5958C8.03551 28.538 8.05537 28.4791 8.07584 28.4191C8.09006 28.4247 8.10526 28.4261 8.12003 28.4238C8.16816 28.4165 8.21927 28.3886 8.26841 28.3528C8.3189 28.316 8.37304 28.2665 8.42783 28.2085C8.53747 28.0922 8.65333 27.9377 8.75175 27.7711L8.75233 27.7701L8.75287 27.7691C8.96451 27.3761 9.45407 26.9887 10.3523 26.5549L10.3537 26.5543C11.0609 26.1895 12.6234 25.4957 13.8128 24.9771C15.0007 24.4592 16.7243 23.7603 17.6352 23.4034C18.4949 23.0709 19.3537 22.7738 20.0173 22.6635L19.6953 23.0066L19.6947 23.0073C19.5783 23.14 19.2974 23.3835 18.9302 23.6726C18.5646 23.9606 18.1173 24.2908 17.6714 24.5961L17.671 24.5963C16.7982 25.2042 15.146 26.2483 14.0006 26.9181L14.0003 26.9183C12.8745 27.585 11.4398 28.3177 10.8359 28.5476C10.3396 28.7326 10.0602 28.8226 9.8191 28.838C9.58095 28.8532 9.37611 28.796 9.02681 28.6712C8.73973 28.5661 8.52847 28.51 8.35717 28.5072C8.22364 28.505 8.11562 28.5352 8.01627 28.5958ZM8.02007 28.2274L8.01398 28.2263L7.82628 28.8009L7.8278 28.8015L7.82785 28.8014C7.82901 28.7978 7.83016 28.7942 7.83132 28.7906L7.83092 28.7904M8.02007 28.2274C8.02348 28.2176 8.02691 28.2077 8.03036 28.1979C8.236 27.6102 8.46574 27.0484 8.66965 26.6166C8.77155 26.4008 8.86743 26.2167 8.95099 26.0778C8.99275 26.0083 9.03194 25.9493 9.06773 25.903C9.10232 25.8583 9.13683 25.8212 9.17028 25.7994C9.4469 25.6072 9.78855 25.6038 10.3139 25.7428C10.603 25.8163 10.8159 25.8453 11.029 25.8246C11.2426 25.8038 11.4609 25.7328 11.7602 25.5985L11.7606 25.5984C12.1704 25.4184 13.1645 24.8327 13.9614 24.2564L13.9622 24.2558C14.7624 23.6985 16.0608 22.7087 16.8435 22.0357L16.8442 22.0351C17.6318 21.3797 18.5294 20.552 18.8135 20.1962L18.8141 20.1955L19.2778 19.6537C18.5043 19.7897 17.8198 20.0439 17.2422 20.3167C16.625 20.629 15.0203 21.448 13.7045 22.1832L13.7039 22.1835C12.3849 22.8996 10.9819 23.7065 10.5985 23.9625C10.4218 24.0962 10.2408 24.2695 10.0971 24.444C9.95145 24.6208 9.85005 24.7918 9.8238 24.9206C9.79324 25.0705 9.73482 25.2092 9.67049 25.3132C9.63836 25.3652 9.60387 25.41 9.56939 25.4436C9.53656 25.4755 9.49706 25.5039 9.45446 25.5104C9.41171 25.5169 9.36868 25.5084 9.33565 25.4765C9.30488 25.4468 9.29113 25.4047 9.28628 25.3616C9.27661 25.2757 9.29872 25.154 9.3482 25.0059L9.34847 25.0051L9.34878 25.0043C9.45046 24.7281 9.7563 24.065 10.0358 23.5071L10.036 23.5067C10.1828 23.2193 10.2952 22.9378 10.3613 22.7159C10.3944 22.6048 10.4154 22.5102 10.4237 22.4382C10.4279 22.4022 10.4287 22.3735 10.4268 22.352C10.4258 22.3414 10.4243 22.3334 10.4227 22.3277C10.4219 22.325 10.4211 22.323 10.4205 22.3216C10.4199 22.3202 10.4195 22.3197 10.4195 22.3197L10.4185 22.3183L10.4176 22.3168C10.3894 22.2715 10.3791 22.2067 10.3775 22.1384C10.3759 22.0677 10.3834 21.9836 10.3983 21.8925C10.4282 21.7102 10.4886 21.494 10.571 21.2898L10.5715 21.2887C10.6452 21.1162 10.6975 20.971 10.724 20.7701C10.7506 20.5679 10.7515 20.3069 10.7185 19.9037C10.6526 19.0967 10.4524 17.7332 10.064 15.1566C9.83513 13.6664 9.60857 12.2603 9.42445 11.1944C9.33238 10.6614 9.25098 10.2138 9.18526 9.88345C9.15238 9.71823 9.12351 9.58277 9.09926 9.48079C9.0745 9.37672 9.05569 9.3127 9.04364 9.28631C8.98588 9.1598 8.9271 9.0799 8.88321 9.04442C8.8681 9.03221 8.85854 9.02828 8.85412 9.02699M8.85606 9.02448C8.85606 9.02448 8.85587 9.02477 8.85543 9.02507C8.85583 9.02458 8.85606 9.02448 8.85606 9.02448ZM109.612 9.02699C109.611 9.02833 109.61 9.0303 109.609 9.03313L109.608 9.0344L109.608 9.03563C109.603 9.04589 109.595 9.06816 109.586 9.10523C109.577 9.14108 109.568 9.18727 109.557 9.2429C109.537 9.35408 109.514 9.50081 109.491 9.67355C109.444 10.0189 109.394 10.4663 109.353 10.9374C109.271 11.8787 109.213 13.6684 109.196 14.9188C109.198 16.1642 109.32 18.0841 109.459 19.1695C109.585 20.0936 109.662 20.5849 109.772 20.8977C109.826 21.0521 109.888 21.1611 109.966 21.2564C110.045 21.3524 110.143 21.4364 110.273 21.5399C110.435 21.6668 110.591 21.8198 110.713 21.9683C110.832 22.1137 110.924 22.2612 110.954 22.379C110.974 22.4367 110.978 22.5112 110.972 22.5916C110.966 22.6747 110.949 22.7697 110.924 22.8698C110.874 23.0698 110.79 23.2946 110.685 23.4925L110.685 23.4928L110.634 23.466L110.686 23.4923L110.685 23.4925C110.499 23.8571 110.052 24.7757 109.74 25.5151L109.74 25.5157C109.581 25.8787 109.411 26.1996 109.268 26.4223C109.196 26.5332 109.131 26.6221 109.076 26.6797C109.048 26.7081 109.021 26.7322 108.994 26.7466C108.969 26.7598 108.927 26.7733 108.89 26.7479C108.89 26.7483 108.891 26.7488 108.892 26.7493L108.921 26.6993L108.887 26.7458C108.888 26.7465 108.889 26.7472 108.89 26.7479C108.843 26.7199 108.82 26.6683 108.808 26.6166C108.796 26.5623 108.795 26.4961 108.801 26.4239C108.814 26.2788 108.86 26.0979 108.936 25.9141L108.936 25.9143L108.989 25.936L108.936 25.9141C109.037 25.6667 109.083 25.4593 109.075 25.1902C109.067 24.9184 109.004 24.5821 108.879 24.0766L108.879 24.077L108.935 24.0623L108.879 24.0761L108.879 24.0766C108.699 23.3932 107.937 21.0756 107.156 18.8974L107.156 18.8969C106.775 17.8069 106.381 16.7636 106.054 15.9552C105.891 15.551 105.744 15.2058 105.625 14.9432C105.504 14.6784 105.414 14.503 105.362 14.4332L105.408 14.3987L105.362 14.4331L105.072 14.0461C105.157 16.5303 105.425 18.334 105.909 20.5588L105.909 20.5593C106.112 21.5375 106.349 22.5354 106.565 23.3558C106.781 24.1774 106.975 24.8161 107.092 25.0804C107.411 25.7594 107.699 26.1149 108.152 26.3118L108.153 26.3122L108.153 26.3127C108.331 26.3976 108.503 26.5139 108.635 26.6346C108.701 26.6949 108.758 26.7573 108.801 26.8184C108.843 26.8789 108.874 26.9417 108.883 27.0026C108.887 27.0341 108.883 27.082 108.874 27.1369C108.866 27.1944 108.851 27.2675 108.832 27.3535C108.793 27.5258 108.733 27.7532 108.658 28.019C108.507 28.5507 108.292 29.2382 108.044 29.9502C108.003 30.0756 107.963 30.1979 107.922 30.3164L108.07 30.7078C108.096 30.6619 108.121 30.6271 108.143 30.6007C108.144 30.5976 108.145 30.5935 108.147 30.5879C108.148 30.5819 108.151 30.5734 108.154 30.5661C108.155 30.5624 108.157 30.5574 108.16 30.5524C108.16 30.5516 108.161 30.5504 108.161 30.5489C108.182 30.486 108.194 30.4299 108.205 30.372C108.208 30.3586 108.21 30.345 108.213 30.3311C108.222 30.285 108.231 30.2363 108.244 30.1832C108.246 30.0433 108.298 29.7917 108.388 29.4599C108.441 29.2677 108.507 29.0466 108.585 28.8015L108.584 28.8009L108.772 28.2263L108.778 28.2274C108.781 28.2176 108.784 28.2077 108.788 28.1979C108.994 27.6102 109.223 27.0484 109.427 26.6166C109.529 26.4008 109.625 26.2167 109.709 26.0778C109.75 26.0083 109.79 25.9493 109.825 25.903C109.86 25.8583 109.894 25.8213 109.928 25.7995C110.204 25.6072 110.546 25.6038 111.072 25.7428C111.361 25.8163 111.574 25.8453 111.787 25.8246C112 25.8038 112.219 25.7328 112.518 25.5985L112.518 25.5984C112.928 25.4184 113.922 24.8327 114.719 24.2564L114.72 24.2558C115.52 23.6985 116.818 22.7087 117.601 22.0357L117.602 22.0351C118.389 21.3797 119.287 20.552 119.571 20.1962L119.572 20.1955L119.572 20.1947L120.035 19.6537C119.262 19.7897 118.577 20.0438 118 20.3167C117.383 20.629 115.778 21.448 114.462 22.1832L114.462 22.1835C113.142 22.8996 111.74 23.7065 111.356 23.9625C111.179 24.0962 110.998 24.2695 110.855 24.444C110.709 24.6208 110.608 24.7918 110.581 24.9206C110.551 25.0705 110.492 25.2092 110.428 25.3132C110.396 25.3652 110.361 25.41 110.327 25.4436C110.294 25.4755 110.255 25.5039 110.212 25.5104C110.169 25.5169 110.126 25.5084 110.093 25.4765C110.062 25.4468 110.049 25.4047 110.044 25.3616C110.034 25.2757 110.056 25.154 110.106 25.0059L110.106 25.0051L110.106 25.0043C110.208 24.7281 110.514 24.065 110.793 23.5071L110.794 23.5067C110.94 23.2193 111.053 22.9378 111.119 22.7159C111.152 22.6048 111.173 22.5102 111.181 22.4382C111.185 22.4022 111.186 22.3735 111.184 22.352C111.183 22.3414 111.182 22.3334 111.18 22.3277C111.18 22.3262 111.179 22.3248 111.179 22.3237C111.179 22.3229 111.178 22.3222 111.178 22.3216C111.177 22.3202 111.177 22.3197 111.177 22.3197L111.176 22.3183L111.175 22.3168C111.147 22.2715 111.137 22.2067 111.135 22.1384C111.133 22.0677 111.141 21.9836 111.156 21.8925C111.186 21.7102 111.246 21.494 111.329 21.2898L111.329 21.2888C111.403 21.1162 111.455 20.971 111.482 20.7701C111.508 20.5679 111.509 20.3069 111.476 19.9037C111.41 19.0967 111.21 17.7332 110.822 15.1568C110.593 13.6665 110.366 12.2603 110.182 11.1944C110.09 10.6614 110.009 10.2138 109.943 9.88345C109.91 9.71823 109.881 9.58277 109.857 9.48079C109.832 9.37672 109.813 9.3127 109.801 9.28631C109.743 9.1598 109.685 9.0799 109.641 9.04442C109.626 9.03221 109.616 9.02828 109.612 9.02699ZM109.614 9.02448C109.614 9.02448 109.613 9.0248 109.613 9.0251C109.613 9.02457 109.614 9.02448 109.614 9.02448ZM108.695 28.8353C108.617 29.0795 108.551 29.2994 108.499 29.4902C108.407 29.8288 108.36 30.0695 108.359 30.191L108.359 30.1977L108.357 30.2042C108.344 30.2565 108.335 30.3034 108.326 30.3508C108.324 30.3651 108.321 30.3794 108.318 30.3939C108.306 30.4562 108.292 30.5201 108.268 30.5931L108.263 30.6098L108.26 30.6121C108.259 30.6144 108.258 30.6172 108.257 30.6204C108.255 30.6264 108.253 30.6349 108.25 30.6422C108.25 30.6444 108.249 30.6469 108.247 30.6496C108.247 30.6516 108.246 30.6536 108.245 30.6557C108.244 30.6574 108.242 30.6609 108.239 30.6651C108.237 30.6675 108.235 30.6701 108.233 30.6727C108.203 30.7072 108.164 30.7674 108.112 30.8727L108.054 30.9927L107.8 30.3183L107.807 30.2988C107.849 30.1745 107.892 30.046 107.935 29.9139L107.935 29.913C108.182 29.2026 108.397 28.5171 108.547 27.9876C108.622 27.7228 108.681 27.4976 108.719 27.3282C108.738 27.2434 108.752 27.1732 108.761 27.1194C108.769 27.063 108.771 27.0314 108.769 27.0193C108.764 26.9833 108.743 26.9375 108.706 26.8844C108.67 26.832 108.619 26.7759 108.557 26.7195C108.434 26.607 108.272 26.4972 108.105 26.417C107.614 26.2033 107.311 25.8171 106.988 25.129L106.987 25.1279C106.865 24.854 106.669 24.2055 106.454 23.3851C106.237 22.5628 106 21.5629 105.796 20.5828C105.3 18.2984 105.029 16.4543 104.951 13.8671L104.945 13.6852L105.454 14.3642L105.454 14.3643C105.515 14.4458 105.61 14.6332 105.729 14.8955C105.85 15.1602 105.997 15.5069 106.161 15.912C106.488 16.7222 106.883 17.7672 107.264 18.8587C108.046 21.0372 108.809 23.3594 108.991 24.0476L108.991 24.0486C109.115 24.5547 109.182 24.9016 109.19 25.1868C109.199 25.4748 109.148 25.6982 109.043 25.9577L109.042 25.9579C108.97 26.1336 108.927 26.303 108.916 26.4341C108.91 26.4999 108.912 26.5532 108.921 26.5918C108.927 26.6206 108.936 26.6358 108.942 26.6434C108.953 26.6367 108.97 26.6232 108.992 26.6001C109.04 26.5504 109.101 26.4688 109.171 26.3601C109.31 26.1436 109.477 25.8284 109.634 25.4696C109.948 24.7269 110.395 23.8059 110.583 23.4398L110.583 23.4392C110.683 23.2494 110.765 23.033 110.813 22.8418C110.837 22.7462 110.852 22.658 110.857 22.5833C110.863 22.5074 110.857 22.4508 110.845 22.415L110.844 22.4121L110.843 22.4091C110.821 22.3172 110.742 22.1851 110.624 22.0413C110.507 21.8994 110.358 21.7523 110.202 21.6305L110.202 21.6303C110.071 21.5261 109.965 21.4358 109.877 21.3295C109.789 21.2224 109.722 21.101 109.664 20.9358C109.549 20.6094 109.47 20.1043 109.345 19.1848L109.345 19.1844C109.205 18.0938 109.083 16.1685 109.081 14.9187L109.081 14.9178C109.098 13.6669 109.156 11.8733 109.238 10.9274C109.28 10.4548 109.329 10.0056 109.376 9.65807C109.4 9.48438 109.423 9.33564 109.444 9.22193C109.455 9.16511 109.465 9.1165 109.474 9.07764C109.483 9.04069 109.493 9.00884 109.503 8.98705C109.52 8.94817 109.552 8.91531 109.6 8.91154C109.643 8.90821 109.682 8.92953 109.713 8.95487C109.777 9.00686 109.845 9.10573 109.906 9.23848C109.924 9.27691 109.945 9.35227 109.969 9.45415C109.994 9.55812 110.023 9.69515 110.056 9.86098C110.122 10.1927 110.203 10.6414 110.296 11.1748C110.48 12.2417 110.706 13.6486 110.935 15.1393L110.935 15.1394C111.324 17.7138 111.525 19.0823 111.591 19.8944C111.624 20.3007 111.624 20.571 111.596 20.7852C111.567 21.0005 111.511 21.1566 111.435 21.3335C111.356 21.5303 111.298 21.738 111.27 21.9111C111.255 21.9978 111.249 22.0744 111.25 22.1357C111.252 22.1983 111.261 22.2366 111.272 22.255C111.29 22.2804 111.296 22.312 111.299 22.3419C111.302 22.3738 111.3 22.4109 111.296 22.4514C111.286 22.5326 111.263 22.6342 111.229 22.7488C111.161 22.9783 111.046 23.2664 110.896 23.5591C110.617 24.116 110.314 24.773 110.215 25.0431C110.167 25.1869 110.152 25.2887 110.158 25.3487C110.162 25.3786 110.17 25.3902 110.173 25.3936C110.175 25.395 110.179 25.399 110.195 25.3965C110.201 25.3955 110.219 25.3879 110.247 25.361C110.273 25.3358 110.301 25.2992 110.33 25.2527C110.387 25.1599 110.441 25.0339 110.469 24.8976C110.501 24.7401 110.617 24.5509 110.766 24.3708C110.916 24.1889 111.104 24.0089 111.288 23.8696L111.289 23.8686L111.291 23.8677C111.677 23.6093 113.086 22.799 114.406 22.0826C115.725 21.3459 117.332 20.5257 117.949 20.2136L117.95 20.2129C118.573 19.9185 119.322 19.6444 120.173 19.5144L120.326 19.491L119.661 20.2681C119.661 20.2684 119.661 20.2686 119.66 20.2689C119.367 20.6354 118.462 21.4691 117.676 22.1233C116.89 22.7992 115.589 23.7909 114.786 24.35C113.986 24.9287 112.985 25.5191 112.565 25.7037C112.261 25.8398 112.03 25.9167 111.798 25.9392C111.566 25.9617 111.338 25.9293 111.043 25.8543L111.042 25.8542C110.524 25.717 110.226 25.732 109.993 25.8944L109.992 25.895L109.991 25.8956C109.974 25.9064 109.949 25.9308 109.916 25.9734C109.884 26.015 109.848 26.0699 109.807 26.1371C109.726 26.2715 109.632 26.4519 109.531 26.6658C109.329 27.0934 109.101 27.6514 108.897 28.2358M108.695 28.8353C108.722 28.7898 108.742 28.7627 108.756 28.7503C108.862 28.6619 108.967 28.6199 109.113 28.6223C109.264 28.6248 109.459 28.6748 109.745 28.7794L109.745 28.7796C110.095 28.9045 110.32 28.9698 110.584 28.9529C110.845 28.9362 111.141 28.8393 111.634 28.6554L111.634 28.6552C112.247 28.4219 113.689 27.6852 114.817 27.0173L114.816 27.0175L114.787 26.9678L114.817 27.0173M118.494 24.691C118.942 24.3843 119.391 24.0526 119.759 23.7631C120.125 23.4752 120.413 23.2259 120.538 23.0839L120.538 23.0847L120.496 23.0453L120.539 23.0832L121.081 22.506L120.922 22.5256C120.224 22.6122 119.281 22.9362 118.351 23.2961L118.351 23.2962C117.439 23.6534 115.714 24.3529 114.524 24.8716C113.336 25.3895 111.771 26.0847 111.059 26.4516C110.159 26.8865 109.64 27.2868 109.41 27.7135C109.315 27.8732 109.205 28.0203 109.102 28.1295C109.05 28.1842 109.001 28.2284 108.958 28.2598C108.929 28.2813 108.904 28.295 108.885 28.3027C108.884 28.2951 108.884 28.2857 108.883 28.274M108.774 28.5958C108.793 28.538 108.813 28.4791 108.833 28.4191C108.848 28.4247 108.863 28.4261 108.878 28.4238C108.926 28.4165 108.977 28.3886 109.026 28.3528C109.076 28.316 109.131 28.2665 109.185 28.2085C109.295 28.0922 109.411 27.9377 109.509 27.7711L109.51 27.7701L109.51 27.7691C109.722 27.3761 110.212 26.9887 111.11 26.5549L111.111 26.5543C111.818 26.1895 113.381 25.4957 114.57 24.9771C115.758 24.4592 117.482 23.7603 118.393 23.4034C119.253 23.0709 120.111 22.7738 120.775 22.6635L120.454 23.0059L120.453 23.0066L120.452 23.0073C120.336 23.14 120.055 23.3835 119.688 23.6726C119.322 23.9606 118.875 24.2908 118.429 24.5961L118.429 24.5963C117.556 25.2042 115.904 26.2483 114.758 26.9181L114.758 26.9183C113.632 27.585 112.197 28.3177 111.593 28.5476C111.097 28.7326 110.818 28.8226 110.577 28.838C110.339 28.8532 110.134 28.796 109.784 28.6711M109.41 27.7135C109.409 27.7138 109.409 27.7142 109.409 27.7145L109.46 27.7418L109.41 27.7125C109.41 27.7128 109.41 27.7132 109.41 27.7135ZM111.059 26.4516L111.058 26.4519L111.085 26.5031L111.06 26.4512C111.06 26.4514 111.059 26.4515 111.059 26.4516ZM118.494 24.691L118.461 24.6436L118.494 24.6908L118.494 24.691ZM105.362 14.4331L105.362 14.4332L105.362 14.4331Z" fill="#F6F6F6"/>
<path d="M290.214 31.0744C289.908 31.0744 289.645 30.9646 289.425 30.745C289.205 30.5253 289.096 30.2622 289.096 29.9556C289.096 29.6489 289.205 29.3858 289.425 29.1662C289.645 28.9466 289.908 28.8368 290.214 28.8368C290.521 28.8368 290.784 28.9466 291.004 29.1662C291.223 29.3858 291.333 29.6489 291.333 29.9556C291.333 30.1586 291.281 30.3451 291.178 30.515C291.078 30.6849 290.944 30.8216 290.774 30.9252C290.608 31.0247 290.422 31.0744 290.214 31.0744ZM290.214 23.9886C289.908 23.9886 289.645 23.8788 289.425 23.6592C289.205 23.4396 289.096 23.1765 289.096 22.8698C289.096 22.5632 289.205 22.3001 289.425 22.0805C289.645 21.8608 289.908 21.751 290.214 21.751C290.521 21.751 290.784 21.8608 291.004 22.0805C291.223 22.3001 291.333 22.5632 291.333 22.8698C291.333 23.0729 291.281 23.2593 291.178 23.4292C291.078 23.5991 290.944 23.7359 290.774 23.8395C290.608 23.9389 290.422 23.9886 290.214 23.9886Z" fill="#F6F6F6"/>
<path d="M280.347 34.5551C280.099 34.5551 279.877 34.5344 279.682 34.4929C279.487 34.4556 279.353 34.4184 279.278 34.3811L279.651 33.0882C280.007 33.1794 280.322 33.2125 280.596 33.1877C280.869 33.1628 281.112 33.0406 281.323 32.821C281.539 32.6055 281.735 32.2553 281.914 31.7705L282.187 31.0247L278.657 21.4278H280.248L282.883 29.0357H282.983L285.618 21.4278H287.209L283.157 32.3672C282.974 32.8603 282.749 33.2685 282.479 33.5917C282.21 33.919 281.897 34.1614 281.541 34.3189C281.188 34.4764 280.791 34.5551 280.347 34.5551Z" fill="#F6F6F6"/>
<path d="M269.072 30.9749V18.2455H270.539V22.9444H270.663C270.771 22.7787 270.92 22.5673 271.111 22.3104C271.306 22.0494 271.583 21.8173 271.944 21.6143C272.308 21.4071 272.802 21.3035 273.423 21.3035C274.227 21.3035 274.936 21.5045 275.549 21.9064C276.162 22.3084 276.641 22.8781 276.985 23.6157C277.329 24.3533 277.501 25.2235 277.501 26.2262C277.501 27.2373 277.329 28.1137 276.985 28.8554C276.641 29.593 276.164 30.1648 275.555 30.5709C274.946 30.9729 274.244 31.1738 273.448 31.1738C272.835 31.1738 272.344 31.0723 271.975 30.8693C271.606 30.6621 271.322 30.428 271.123 30.1669C270.924 29.9017 270.771 29.6821 270.663 29.5081H270.489V30.9749H269.072ZM270.514 26.2014C270.514 26.9224 270.62 27.5584 270.831 28.1096C271.043 28.6565 271.351 29.0854 271.757 29.3962C272.163 29.7028 272.661 29.8561 273.249 29.8561C273.862 29.8561 274.374 29.6945 274.784 29.3713C275.199 29.044 275.509 28.6047 275.717 28.0536C275.928 27.4984 276.034 26.8809 276.034 26.2014C276.034 25.5301 275.93 24.9251 275.723 24.3864C275.52 23.8436 275.211 23.4147 274.797 23.0998C274.387 22.7807 273.871 22.6212 273.249 22.6212C272.652 22.6212 272.151 22.7725 271.745 23.0749C271.339 23.3733 271.032 23.7918 270.825 24.3305C270.618 24.865 270.514 25.4887 270.514 26.2014Z" fill="#F6F6F6"/>
<path d="M225.54 25.2317V30.9749H224.073V18.2455H225.54V22.9196H225.664C225.888 22.4265 226.224 22.0349 226.671 21.7448C227.123 21.4506 227.724 21.3035 228.474 21.3035C229.124 21.3035 229.694 21.434 230.183 21.6951C230.672 21.952 231.051 22.3477 231.32 22.8823C231.594 23.4127 231.731 24.0881 231.731 24.9085V30.9749H230.264V25.008C230.264 24.2497 230.067 23.6634 229.673 23.249C229.284 22.8305 228.743 22.6212 228.051 22.6212C227.57 22.6212 227.139 22.7227 226.758 22.9258C226.381 23.1288 226.083 23.4251 225.863 23.8146C225.648 24.2041 225.54 24.6765 225.54 25.2317Z" fill="#F6F6F6"/>
<path d="M221.661 21.4278V22.6709H216.714V21.4278H221.661ZM218.156 19.1405H219.623V28.2401C219.623 28.6545 219.683 28.9652 219.803 29.1724C219.927 29.3755 220.085 29.5122 220.275 29.5826C220.47 29.6489 220.675 29.6821 220.891 29.6821C221.052 29.6821 221.185 29.6738 221.289 29.6572C221.392 29.6365 221.475 29.6199 221.537 29.6075L221.836 30.9252C221.736 30.9625 221.597 30.9998 221.419 31.0371C221.241 31.0785 221.015 31.0992 220.742 31.0992C220.327 31.0992 219.921 31.0102 219.523 30.832C219.13 30.6538 218.802 30.3824 218.541 30.0177C218.284 29.6531 218.156 29.1931 218.156 28.6379V19.1405Z" fill="#F6F6F6"/>
<path d="M213.356 30.9749V21.4278H214.823V30.9749H213.356ZM214.102 19.8366C213.816 19.8366 213.569 19.7393 213.362 19.5445C213.159 19.3498 213.058 19.1156 213.058 18.8421C213.058 18.5687 213.159 18.3345 213.362 18.1398C213.569 17.945 213.816 17.8477 214.102 17.8477C214.388 17.8477 214.632 17.945 214.835 18.1398C215.042 18.3345 215.146 18.5687 215.146 18.8421C215.146 19.1156 215.042 19.3498 214.835 19.5445C214.632 19.7393 214.388 19.8366 214.102 19.8366Z" fill="#F6F6F6"/>
<path d="M201.298 30.9749L198.389 21.4278H199.93L201.994 28.7373H202.093L204.132 21.4278H205.698L207.712 28.7125H207.812L209.875 21.4278H211.417L208.508 30.9749H207.066L204.977 23.6406H204.828L202.74 30.9749H201.298Z" fill="#F6F6F6"/>
<path d="M186.946 31.1738C186.15 31.1738 185.448 30.9729 184.839 30.5709C184.23 30.1648 183.753 29.593 183.409 28.8554C183.065 28.1137 182.893 27.2373 182.893 26.2262C182.893 25.2235 183.065 24.3533 183.409 23.6157C183.753 22.8781 184.232 22.3084 184.845 21.9064C185.458 21.5045 186.167 21.3035 186.971 21.3035C187.592 21.3035 188.083 21.4071 188.444 21.6143C188.809 21.8173 189.086 22.0494 189.277 22.3104C189.472 22.5673 189.623 22.7787 189.731 22.9444H189.855V18.2455H191.322V30.9749H189.905V29.5081H189.731C189.623 29.6821 189.47 29.9017 189.271 30.1669C189.072 30.428 188.788 30.6621 188.419 30.8693C188.05 31.0723 187.559 31.1738 186.946 31.1738ZM187.145 29.8561C187.733 29.8561 188.231 29.7028 188.637 29.3962C189.043 29.0854 189.351 28.6565 189.563 28.1096C189.774 27.5584 189.88 26.9224 189.88 26.2014C189.88 25.4887 189.776 24.865 189.569 24.3305C189.362 23.7918 189.055 23.3733 188.649 23.0749C188.243 22.7725 187.742 22.6212 187.145 22.6212C186.523 22.6212 186.005 22.7807 185.591 23.0998C185.181 23.4147 184.872 23.8436 184.665 24.3864C184.462 24.9251 184.36 25.5301 184.36 26.2014C184.36 26.8809 184.464 27.4984 184.671 28.0536C184.882 28.6047 185.193 29.044 185.603 29.3713C186.018 29.6945 186.532 29.8561 187.145 29.8561Z" fill="#F6F6F6"/>
<path d="M177.156 31.1738C176.237 31.1738 175.443 30.9708 174.776 30.5647C174.113 30.1545 173.601 29.5826 173.241 28.8492C172.884 28.1116 172.706 27.2539 172.706 26.276C172.706 25.298 172.884 24.4362 173.241 23.6903C173.601 22.9403 174.103 22.356 174.745 21.9375C175.391 21.5148 176.145 21.3035 177.007 21.3035C177.505 21.3035 177.996 21.3864 178.48 21.5521C178.965 21.7179 179.407 21.9872 179.804 22.3602C180.202 22.7289 180.519 23.2179 180.755 23.827C180.991 24.4362 181.11 25.1862 181.11 26.0771V26.6986H173.75V25.4306H179.618C179.618 24.892 179.51 24.4113 179.295 23.9886C179.083 23.566 178.781 23.2324 178.387 22.9879C177.998 22.7435 177.538 22.6212 177.007 22.6212C176.423 22.6212 175.918 22.7662 175.491 23.0563C175.068 23.3422 174.743 23.7151 174.515 24.1751C174.287 24.6351 174.173 25.1282 174.173 25.6544V26.4997C174.173 27.2207 174.297 27.8319 174.546 28.3333C174.799 28.8306 175.149 29.2097 175.596 29.4708C176.044 29.7277 176.564 29.8561 177.156 29.8561C177.542 29.8561 177.89 29.8023 178.201 29.6945C178.516 29.5826 178.787 29.4169 179.015 29.1973C179.243 28.9735 179.419 28.6959 179.543 28.3644L180.96 28.7622C180.811 29.2429 180.561 29.6655 180.208 30.0302C179.856 30.3907 179.421 30.6724 178.903 30.8755C178.385 31.0744 177.803 31.1738 177.156 31.1738Z" fill="#F6F6F6"/>
<path d="M162.488 34.5551V21.4278H163.905V22.9444H164.079C164.187 22.7787 164.336 22.5673 164.526 22.3104C164.721 22.0494 164.999 21.8173 165.359 21.6143C165.724 21.4071 166.217 21.3035 166.839 21.3035C167.643 21.3035 168.351 21.5045 168.964 21.9064C169.578 22.3084 170.056 22.8781 170.4 23.6157C170.744 24.3533 170.916 25.2235 170.916 26.2262C170.916 27.2373 170.744 28.1137 170.4 28.8554C170.056 29.593 169.58 30.1648 168.971 30.5709C168.361 30.9729 167.659 31.1738 166.863 31.1738C166.25 31.1738 165.759 31.0723 165.39 30.8693C165.022 30.6621 164.738 30.428 164.539 30.1669C164.34 29.9017 164.187 29.6821 164.079 29.5081H163.955V34.5551H162.488ZM163.93 26.2014C163.93 26.9224 164.035 27.5584 164.247 28.1096C164.458 28.6565 164.767 29.0854 165.173 29.3962C165.579 29.7028 166.076 29.8561 166.665 29.8561C167.278 29.8561 167.79 29.6945 168.2 29.3713C168.614 29.044 168.925 28.6047 169.132 28.0536C169.344 27.4984 169.449 26.8809 169.449 26.2014C169.449 25.5301 169.346 24.9251 169.138 24.3864C168.935 23.8436 168.627 23.4147 168.212 23.0998C167.802 22.7807 167.286 22.6212 166.665 22.6212C166.068 22.6212 165.567 22.7725 165.16 23.0749C164.754 23.3733 164.448 23.7918 164.241 24.3305C164.033 24.865 163.93 25.4887 163.93 26.2014Z" fill="#F6F6F6"/>
<path d="M155.923 31.1738C155.061 31.1738 154.304 30.9687 153.654 30.5585C153.007 30.1483 152.502 29.5744 152.137 28.8368C151.777 28.0992 151.597 27.2373 151.597 26.2511C151.597 25.2566 151.777 24.3885 152.137 23.6468C152.502 22.9051 153.007 22.3291 153.654 21.9189C154.304 21.5086 155.061 21.3035 155.923 21.3035C156.784 21.3035 157.539 21.5086 158.185 21.9189C158.836 22.3291 159.341 22.9051 159.702 23.6468C160.066 24.3885 160.249 25.2566 160.249 26.2511C160.249 27.2373 160.066 28.0992 159.702 28.8368C159.341 29.5744 158.836 30.1483 158.185 30.5585C157.539 30.9687 156.784 31.1738 155.923 31.1738ZM155.923 29.8561C156.577 29.8561 157.116 29.6883 157.539 29.3527C157.961 29.017 158.274 28.5757 158.477 28.0288C158.68 27.4818 158.782 26.8892 158.782 26.2511C158.782 25.613 158.68 25.0183 158.477 24.4672C158.274 23.9161 157.961 23.4707 157.539 23.1309C157.116 22.7911 156.577 22.6212 155.923 22.6212C155.268 22.6212 154.729 22.7911 154.306 23.1309C153.884 23.4707 153.571 23.9161 153.368 24.4672C153.165 25.0183 153.063 25.613 153.063 26.2511C153.063 26.8892 153.165 27.4818 153.368 28.0288C153.571 28.5757 153.884 29.017 154.306 29.3527C154.729 29.6883 155.268 29.8561 155.923 29.8561Z" fill="#F6F6F6"/>
<path d="M149.357 18.2455V30.9749H147.89V18.2455H149.357Z" fill="#F6F6F6"/>
<path d="M141.706 31.1738C140.786 31.1738 139.993 30.9708 139.325 30.5647C138.662 30.1545 138.151 29.5826 137.79 28.8492C137.434 28.1116 137.256 27.2539 137.256 26.276C137.256 25.298 137.434 24.4362 137.79 23.6903C138.151 22.9403 138.652 22.356 139.294 21.9375C139.941 21.5148 140.695 21.3035 141.557 21.3035C142.054 21.3035 142.545 21.3864 143.03 21.5521C143.515 21.7179 143.956 21.9872 144.354 22.3602C144.752 22.7289 145.069 23.2179 145.305 23.827C145.541 24.4362 145.659 25.1862 145.659 26.0771V26.6986H138.3V25.4306H144.167C144.167 24.892 144.06 24.4113 143.844 23.9886C143.633 23.566 143.33 23.2324 142.937 22.9879C142.547 22.7435 142.087 22.6212 141.557 22.6212C140.973 22.6212 140.467 22.7662 140.04 23.0563C139.618 23.3422 139.292 23.7151 139.064 24.1751C138.836 24.6351 138.723 25.1282 138.723 25.6544V26.4997C138.723 27.2207 138.847 27.8319 139.095 28.3333C139.348 28.8306 139.698 29.2097 140.146 29.4708C140.593 29.7277 141.113 29.8561 141.706 29.8561C142.091 29.8561 142.439 29.8023 142.75 29.6945C143.065 29.5826 143.337 29.4169 143.564 29.1973C143.792 28.9735 143.968 28.6959 144.093 28.3644L145.51 28.7622C145.361 29.2429 145.11 29.6655 144.758 30.0302C144.406 30.3907 143.971 30.6724 143.453 30.8755C142.935 31.0744 142.352 31.1738 141.706 31.1738Z" fill="#F6F6F6"/>
<path d="M136.109 21.4278L132.578 30.9749H131.087L127.556 21.4278H129.147L131.783 29.0357H131.882L134.518 21.4278H136.109Z" fill="#F6F6F6"/>
<path d="M122.408 31.1738C121.488 31.1738 120.695 30.9708 120.028 30.5647C119.365 30.1545 118.853 29.5826 118.492 28.8492C118.136 28.1116 117.958 27.2539 117.958 26.276C117.958 25.298 118.136 24.4362 118.492 23.6903C118.853 22.9403 119.354 22.356 119.997 21.9375C120.643 21.5148 121.397 21.3035 122.259 21.3035C122.756 21.3035 123.247 21.3864 123.732 21.5521C124.217 21.7179 124.658 21.9872 125.056 22.3602C125.454 22.7289 125.771 23.2179 126.007 23.827C126.243 24.4362 126.361 25.1862 126.361 26.0771V26.6986H119.002V25.4306H124.87C124.87 24.892 124.762 24.4113 124.546 23.9886C124.335 23.566 124.033 23.2324 123.639 22.9879C123.249 22.7435 122.789 22.6212 122.259 22.6212C121.675 22.6212 121.169 22.7662 120.742 23.0563C120.32 23.3422 119.995 23.7151 119.767 24.1751C119.539 24.6351 119.425 25.1282 119.425 25.6544V26.4997C119.425 27.2207 119.549 27.8319 119.798 28.3333C120.05 28.8306 120.401 29.2097 120.848 29.4708C121.296 29.7277 121.816 29.8561 122.408 29.8561C122.794 29.8561 123.142 29.8023 123.452 29.6945C123.767 29.5826 124.039 29.4169 124.267 29.1973C124.495 28.9735 124.671 28.6959 124.795 28.3644L126.212 28.7622C126.063 29.2429 125.812 29.6655 125.46 30.0302C125.108 30.3907 124.673 30.6724 124.155 30.8755C123.637 31.0744 123.055 31.1738 122.408 31.1738Z" fill="#F6F6F6"/>
<path d="M109.952 30.9749H106.024V18.2455H110.126C111.361 18.2455 112.418 18.5003 113.296 19.01C114.175 19.5155 114.848 20.2427 115.316 21.1916C115.785 22.1364 116.019 23.2676 116.019 24.5853C116.019 25.9113 115.782 27.0529 115.31 28.0101C114.838 28.9632 114.15 29.6966 113.246 30.2104C112.343 30.7201 111.245 30.9749 109.952 30.9749ZM107.565 29.6075H109.853C110.905 29.6075 111.778 29.4045 112.47 28.9984C113.162 28.5923 113.677 28.0142 114.017 27.2642C114.357 26.5142 114.527 25.6213 114.527 24.5853C114.527 23.5577 114.359 22.673 114.023 21.9313C113.688 21.1854 113.186 20.6136 112.519 20.2158C111.852 19.8138 111.021 19.6129 110.027 19.6129H107.565V29.6075Z" fill="#F6F6F6"/>
<path d="M93.3116 31.149C92.4746 31.149 91.7536 30.9956 91.1486 30.689C90.5436 30.3824 90.0774 29.9618 89.7501 29.4273C89.4227 28.8927 89.2591 28.2815 89.2591 27.5937C89.2591 27.0633 89.3709 26.593 89.5947 26.1827C89.8226 25.7684 90.1355 25.3851 90.5332 25.0328C90.9352 24.6765 91.3972 24.3201 91.9193 23.9638L93.7591 22.5963C94.1196 22.3602 94.4076 22.1074 94.6231 21.838C94.8427 21.5687 94.9525 21.2165 94.9525 20.7814C94.9525 20.4582 94.8096 20.1453 94.5236 19.8429C94.2419 19.5404 93.871 19.3891 93.4111 19.3891C93.0878 19.3891 92.8019 19.472 92.5533 19.6377C92.3088 19.7993 92.1161 20.0065 91.9753 20.2593C91.8385 20.5079 91.7701 20.7648 91.7701 21.03C91.7701 21.3284 91.8509 21.6309 92.0126 21.9375C92.1783 22.24 92.3876 22.5508 92.6403 22.8698C92.8972 23.1848 93.1624 23.508 93.4359 23.8395L99.2785 30.9749H97.5133L92.69 25.1572C92.2425 24.6185 91.8364 24.1295 91.4718 23.6903C91.1072 23.2511 90.8171 22.818 90.6016 22.3912C90.3861 21.9644 90.2784 21.5024 90.2784 21.0052C90.2784 20.4333 90.4048 19.9319 90.6576 19.501C90.9145 19.0659 91.2729 18.7282 91.7328 18.4879C92.1969 18.2434 92.7398 18.1211 93.3613 18.1211C93.9995 18.1211 94.5485 18.2455 95.0085 18.4941C95.4684 18.7386 95.8227 19.0638 96.0713 19.4699C96.3199 19.8719 96.4443 20.309 96.4443 20.7814C96.4443 21.3905 96.293 21.9189 95.9905 22.3664C95.688 22.8139 95.2757 23.2303 94.7536 23.6157L92.2177 25.5052C91.6458 25.9279 91.2584 26.3381 91.0554 26.7359C90.8523 27.1337 90.7508 27.4196 90.7508 27.5937C90.7508 27.9915 90.8544 28.3623 91.0616 28.7062C91.2688 29.0502 91.5609 29.3278 91.938 29.5391C92.315 29.7505 92.7564 29.8561 93.2619 29.8561C93.7426 29.8561 94.2108 29.7546 94.6666 29.5516C95.1224 29.3444 95.5347 29.046 95.9035 28.6565C96.2764 28.267 96.5706 27.7988 96.7861 27.2518C97.0057 26.7048 97.1155 26.0895 97.1155 25.4058H98.5327C98.5327 26.2511 98.4353 26.941 98.2406 27.4756C98.0458 28.0101 97.8262 28.4286 97.5817 28.7311C97.3372 29.0336 97.1404 29.2594 96.9912 29.4086C96.9415 29.4708 96.8959 29.5329 96.8545 29.5951C96.813 29.6572 96.7675 29.7194 96.7177 29.7815C96.3075 30.2415 95.7895 30.5854 95.1638 30.8133C94.5381 31.0371 93.9207 31.149 93.3116 31.149Z" fill="#F6F6F6"/>
<path d="M77.5179 31.1738C76.7223 31.1738 76.0199 30.9729 75.4108 30.5709C74.8017 30.1648 74.3251 29.593 73.9812 28.8554C73.6373 28.1137 73.4653 27.2373 73.4653 26.2262C73.4653 25.2235 73.6373 24.3533 73.9812 23.6157C74.3251 22.8781 74.8037 22.3084 75.417 21.9064C76.0303 21.5045 76.7388 21.3035 77.5427 21.3035C78.1643 21.3035 78.6553 21.4071 79.0158 21.6143C79.3805 21.8173 79.6581 22.0494 79.8487 22.3104C80.0434 22.5673 80.1947 22.7787 80.3024 22.9444H80.4267V18.2455H81.8936V30.9749H80.4765V29.5081H80.3024C80.1947 29.6821 80.0414 29.9017 79.8425 30.1669C79.6436 30.428 79.3597 30.6621 78.991 30.8693C78.6222 31.0723 78.1311 31.1738 77.5179 31.1738ZM77.7168 29.8561C78.3052 29.8561 78.8024 29.7028 79.2085 29.3962C79.6146 29.0854 79.9233 28.6565 80.1346 28.1096C80.3459 27.5584 80.4516 26.9224 80.4516 26.2014C80.4516 25.4887 80.348 24.865 80.1408 24.3305C79.9336 23.7918 79.627 23.3733 79.2209 23.0749C78.8148 22.7725 78.3134 22.6212 77.7168 22.6212C77.0952 22.6212 76.5772 22.7807 76.1629 23.0998C75.7526 23.4147 75.4439 23.8436 75.2367 24.3864C75.0337 24.9251 74.9322 25.5301 74.9322 26.2014C74.9322 26.8809 75.0358 27.4984 75.243 28.0536C75.4543 28.6047 75.7651 29.044 76.1753 29.3713C76.5897 29.6945 77.1035 29.8561 77.7168 29.8561Z" fill="#F6F6F6"/>
<path d="M67.7283 31.1738C66.8084 31.1738 66.0149 30.9708 65.3478 30.5647C64.6848 30.1545 64.173 29.5826 63.8125 28.8492C63.4562 28.1116 63.278 27.2539 63.278 26.276C63.278 25.298 63.4562 24.4362 63.8125 23.6903C64.173 22.9403 64.6744 22.356 65.3167 21.9375C65.9631 21.5148 66.7173 21.3035 67.5792 21.3035C68.0764 21.3035 68.5674 21.3864 69.0523 21.5521C69.5371 21.7179 69.9784 21.9872 70.3762 22.3602C70.774 22.7289 71.091 23.2179 71.3271 23.827C71.5633 24.4362 71.6814 25.1862 71.6814 26.0771V26.6986H64.3222V25.4306H70.1897C70.1897 24.892 70.082 24.4113 69.8665 23.9886C69.6552 23.566 69.3527 23.2324 68.959 22.9879C68.5695 22.7435 68.1096 22.6212 67.5792 22.6212C66.9949 22.6212 66.4894 22.7662 66.0626 23.0563C65.6399 23.3422 65.3146 23.7151 65.0867 24.1751C64.8588 24.6351 64.7449 25.1282 64.7449 25.6544V26.4997C64.7449 27.2207 64.8692 27.8319 65.1178 28.3333C65.3706 28.8306 65.7207 29.2097 66.1682 29.4708C66.6157 29.7277 67.1358 29.8561 67.7283 29.8561C68.1137 29.8561 68.4618 29.8023 68.7726 29.6945C69.0875 29.5826 69.3589 29.4169 69.5868 29.1973C69.8147 28.9735 69.9908 28.6959 70.1151 28.3644L71.5323 28.7622C71.3831 29.2429 71.1324 29.6655 70.7802 30.0302C70.428 30.3907 69.9929 30.6724 69.4749 30.8755C68.9569 31.0744 68.3748 31.1738 67.7283 31.1738Z" fill="#F6F6F6"/>
<path d="M54.9538 25.2317V30.9749H53.4869V21.4278H54.9041V22.9196H55.0284C55.2521 22.4347 55.5919 22.0452 56.0477 21.751C56.5036 21.4527 57.092 21.3035 57.813 21.3035C58.4594 21.3035 59.025 21.4361 59.5098 21.7013C59.9946 21.9624 60.3717 22.3602 60.641 22.8947C60.9104 23.4251 61.0451 24.0964 61.0451 24.9085V30.9749H59.5782V25.008C59.5782 24.258 59.3834 23.6737 58.9939 23.2552C58.6044 22.8325 58.0699 22.6212 57.3903 22.6212C56.9221 22.6212 56.5036 22.7227 56.1348 22.9258C55.7701 23.1288 55.4821 23.4251 55.2708 23.8146C55.0595 24.2041 54.9538 24.6765 54.9538 25.2317Z" fill="#F6F6F6"/>
<path d="M46.6747 34.754C45.9661 34.754 45.357 34.6628 44.8473 34.4805C44.3376 34.3023 43.9129 34.0661 43.5731 33.7719C43.2375 33.4819 42.9702 33.1711 42.7713 32.8396L43.9398 32.0191C44.0724 32.1932 44.2402 32.3921 44.4433 32.6158C44.6463 32.8437 44.924 33.0406 45.2762 33.2063C45.6325 33.3762 46.0987 33.4612 46.6747 33.4612C47.4454 33.4612 48.0815 33.2747 48.5828 32.9018C49.0842 32.5288 49.3349 31.9446 49.3349 31.149V29.2097H49.2106C49.1029 29.3837 48.9496 29.5992 48.7507 29.8561C48.5559 30.1089 48.2741 30.3347 47.9054 30.5336C47.5407 30.7284 47.0476 30.8258 46.426 30.8258C45.6553 30.8258 44.9633 30.6434 44.35 30.2788C43.7409 29.9141 43.2582 29.3837 42.9018 28.6876C42.5496 27.9915 42.3735 27.1461 42.3735 26.1517C42.3735 25.1737 42.5455 24.3222 42.8894 23.5971C43.2333 22.8678 43.7119 22.3042 44.3252 21.9064C44.9385 21.5045 45.647 21.3035 46.4509 21.3035C47.0725 21.3035 47.5656 21.4071 47.9302 21.6143C48.299 21.8173 48.5808 22.0494 48.7755 22.3104C48.9744 22.5673 49.1277 22.7787 49.2355 22.9444H49.3847V21.4278H50.8018V31.2484C50.8018 32.0689 50.6153 32.736 50.2424 33.2498C49.8736 33.7678 49.3764 34.1469 48.7507 34.3873C48.1291 34.6318 47.4371 34.754 46.6747 34.754ZM46.6249 29.5081C47.2134 29.5081 47.7106 29.3734 48.1167 29.104C48.5228 28.8347 48.8315 28.4473 49.0428 27.9417C49.2541 27.4362 49.3598 26.8312 49.3598 26.1268C49.3598 25.4389 49.2562 24.8319 49.049 24.3056C48.8418 23.7794 48.5352 23.3671 48.1291 23.0687C47.723 22.7704 47.2216 22.6212 46.6249 22.6212C46.0034 22.6212 45.4854 22.7787 45.0711 23.0936C44.6608 23.4085 44.3521 23.8312 44.1449 24.3616C43.9419 24.892 43.8404 25.4804 43.8404 26.1268C43.8404 26.7898 43.944 27.3761 44.1511 27.8858C44.3625 28.3913 44.6733 28.7891 45.0835 29.0792C45.4979 29.3651 46.0117 29.5081 46.6249 29.5081Z" fill="#F6F6F6"/>
<path d="M38.6675 30.9749V21.4278H40.1343V30.9749H38.6675ZM39.4133 19.8366C39.1274 19.8366 38.8809 19.7393 38.6737 19.5445C38.4706 19.3498 38.3691 19.1156 38.3691 18.8421C38.3691 18.5687 38.4706 18.3345 38.6737 18.1398C38.8809 17.945 39.1274 17.8477 39.4133 17.8477C39.6992 17.8477 39.9437 17.945 40.1468 18.1398C40.354 18.3345 40.4576 18.5687 40.4576 18.8421C40.4576 19.1156 40.354 19.3498 40.1468 19.5445C39.9437 19.7393 39.6992 19.8366 39.4133 19.8366Z" fill="#F6F6F6"/>
<path d="M36.2854 23.566L34.9677 23.9389C34.8848 23.7193 34.7625 23.5059 34.6009 23.2987C34.4435 23.0874 34.228 22.9133 33.9545 22.7766C33.681 22.6399 33.3309 22.5715 32.9041 22.5715C32.3198 22.5715 31.8329 22.7062 31.4434 22.9755C31.0581 23.2407 30.8654 23.5784 30.8654 23.9886C30.8654 24.3533 30.998 24.6413 31.2632 24.8526C31.5284 25.0639 31.9427 25.24 32.5063 25.3809L33.9234 25.729C34.777 25.9362 35.4131 26.2532 35.8316 26.68C36.2501 27.1026 36.4594 27.6475 36.4594 28.3147C36.4594 28.8616 36.3019 29.3506 35.987 29.7815C35.6762 30.2125 35.2411 30.5523 34.6817 30.8009C34.1223 31.0495 33.4718 31.1738 32.73 31.1738C31.7563 31.1738 30.9503 30.9625 30.3122 30.5398C29.6741 30.1172 29.2701 29.4998 29.1002 28.6876L30.4924 28.3395C30.625 28.8533 30.8757 29.2387 31.2445 29.4956C31.6175 29.7525 32.1043 29.881 32.7052 29.881C33.3889 29.881 33.9317 29.736 34.3337 29.4459C34.7397 29.1517 34.9428 28.7995 34.9428 28.3893C34.9428 28.0578 34.8268 27.7801 34.5947 27.5564C34.3627 27.3285 34.0063 27.1586 33.5256 27.0467L31.9345 26.6738C31.0601 26.4666 30.4179 26.1454 30.0076 25.7103C29.6015 25.2711 29.3985 24.7221 29.3985 24.0632C29.3985 23.5245 29.5498 23.048 29.8522 22.6336C30.1589 22.2193 30.5753 21.894 31.1016 21.6578C31.632 21.4216 32.2328 21.3035 32.9041 21.3035C33.8489 21.3035 34.5906 21.5107 35.1293 21.9251C35.6721 22.3394 36.0574 22.8864 36.2854 23.566Z" fill="#F6F6F6"/>
<path d="M23.3383 31.1738C22.4184 31.1738 21.6249 30.9708 20.9578 30.5647C20.2948 30.1545 19.783 29.5826 19.4225 28.8492C19.0662 28.1116 18.888 27.2539 18.888 26.276C18.888 25.298 19.0662 24.4362 19.4225 23.6903C19.783 22.9403 20.2844 22.356 20.9267 21.9375C21.5731 21.5148 22.3273 21.3035 23.1892 21.3035C23.6864 21.3035 24.1774 21.3864 24.6622 21.5521C25.1471 21.7179 25.5884 21.9872 25.9862 22.3602C26.384 22.7289 26.701 23.2179 26.9371 23.827C27.1733 24.4362 27.2914 25.1862 27.2914 26.0771V26.6986H19.9322V25.4306H25.7997C25.7997 24.892 25.692 24.4113 25.4765 23.9886C25.2652 23.566 24.9627 23.2324 24.569 22.9879C24.1795 22.7435 23.7196 22.6212 23.1892 22.6212C22.6049 22.6212 22.0994 22.7662 21.6726 23.0563C21.2499 23.3422 20.9246 23.7151 20.6967 24.1751C20.4688 24.6351 20.3549 25.1282 20.3549 25.6544V26.4997C20.3549 27.2207 20.4792 27.8319 20.7278 28.3333C20.9806 28.8306 21.3307 29.2097 21.7782 29.4708C22.2257 29.7277 22.7458 29.8561 23.3383 29.8561C23.7237 29.8561 24.0718 29.8023 24.3825 29.6945C24.6975 29.5826 24.9689 29.4169 25.1968 29.1973C25.4247 28.9735 25.6008 28.6959 25.7251 28.3644L27.1423 28.7622C26.9931 29.2429 26.7424 29.6655 26.3902 30.0302C26.038 30.3907 25.6029 30.6724 25.0849 30.8755C24.5669 31.0744 23.9847 31.1738 23.3383 31.1738Z" fill="#F6F6F6"/>
<path d="M10.8823 30.9749H6.9541V18.2455H11.0564C12.2912 18.2455 13.3478 18.5003 14.2263 19.01C15.1048 19.5155 15.7781 20.2427 16.2464 21.1916C16.7146 22.1364 16.9487 23.2676 16.9487 24.5853C16.9487 25.9113 16.7125 27.0529 16.2402 28.0101C15.7678 28.9632 15.0799 29.6966 14.1766 30.2104C13.2733 30.7201 12.1752 30.9749 10.8823 30.9749ZM8.49556 29.6075H10.7829C11.8354 29.6075 12.7076 29.4045 13.3996 28.9984C14.0916 28.5923 14.6075 28.0142 14.9473 27.2642C15.2871 26.5142 15.457 25.6213 15.457 24.5853C15.457 23.5577 15.2892 22.673 14.9535 21.9313C14.6179 21.1854 14.1165 20.6136 13.4494 20.2158C12.7822 19.8138 11.9514 19.6129 10.9569 19.6129H8.49556V29.6075Z" fill="#F6F6F6"/>
<path d="M315.363 32.7579H311.117V26.1277C311.117 25.5453 310.983 25.1272 310.714 24.8733C310.461 24.6046 310.163 24.4702 309.82 24.4702C309.582 24.4702 309.329 24.5448 309.06 24.6942C308.792 24.8285 308.546 25.0227 308.323 25.2765C308.099 25.5304 307.921 25.8216 307.786 26.1501V32.7579H303.54V20.9759H307.362V22.7231C307.645 22.29 308.003 21.9316 308.435 21.6479C308.867 21.3493 309.366 21.1252 309.932 20.9759C310.498 20.8266 311.117 20.752 311.787 20.752C312.592 20.752 313.232 20.8938 313.709 21.1776C314.186 21.4613 314.544 21.8271 314.782 22.2751C315.02 22.7231 315.177 23.1935 315.251 23.6862C315.326 24.1641 315.363 24.6046 315.363 25.0078V32.7579Z" fill="#F6F6F6"/>
<path d="M317.421 32.7595V20.9776H321.667V32.7595H317.421ZM317.421 19.992V16.4082H321.667V19.992H317.421Z" fill="#F6F6F6"/>
<path d="M323.727 33.9456C324.07 34.0651 324.383 34.1547 324.666 34.2145C324.964 34.2891 325.232 34.3265 325.471 34.3265C325.783 34.3265 326.044 34.2667 326.253 34.1472C326.461 34.0428 326.625 33.871 326.745 33.632C326.864 33.3931 326.938 33.1019 326.968 32.7585L322.699 20.9766H327.057L329.292 28.3907L331.103 20.9766H335.059L331.08 34.1697C330.857 34.9312 330.492 35.5957 329.985 36.1631C329.479 36.7456 328.875 37.1935 328.175 37.5071C327.475 37.8356 326.722 37.9999 325.918 37.9999C325.545 37.9999 325.173 37.9626 324.8 37.8879C324.442 37.8282 324.085 37.7236 323.727 37.5743V33.9456Z" fill="#F6F6F6"/>
<path d="M335.304 29.1964C335.304 28.4049 335.52 27.7106 335.952 27.1133C336.384 26.501 336.98 26.0232 337.74 25.6798C338.515 25.3363 339.394 25.1646 340.377 25.1646C340.839 25.1646 341.271 25.2019 341.673 25.2765C342.091 25.3512 342.448 25.4632 342.746 25.6126V25.2542C342.746 24.7016 342.582 24.291 342.254 24.0222C341.942 23.7535 341.428 23.619 340.712 23.619C340.057 23.619 339.438 23.731 338.857 23.955C338.291 24.1641 337.695 24.4777 337.069 24.8958L335.84 22.2527C336.63 21.745 337.457 21.3716 338.321 21.1327C339.2 20.8789 340.139 20.752 341.137 20.752C342.999 20.752 344.437 21.1776 345.45 22.0287C346.479 22.8649 346.993 24.1118 346.993 25.7694V28.0541C346.993 28.4573 347.052 28.741 347.171 28.9052C347.291 29.0545 347.499 29.1442 347.797 29.174V32.7579C347.455 32.8325 347.127 32.8848 346.814 32.9146C346.516 32.9595 346.248 32.9818 346.009 32.9818C345.249 32.9818 344.668 32.8475 344.266 32.5786C343.879 32.2949 343.625 31.8843 343.506 31.3467L343.417 30.9211C342.895 31.5931 342.292 32.1082 341.606 32.4666C340.921 32.8101 340.191 32.9818 339.416 32.9818C338.641 32.9818 337.941 32.8176 337.315 32.4891C336.689 32.1606 336.198 31.7126 335.84 31.1451C335.482 30.5627 335.304 29.9132 335.304 29.1964ZM342.187 29.4876C342.351 29.3681 342.485 29.2412 342.59 29.1068C342.694 28.9575 342.746 28.8081 342.746 28.6588V27.7853C342.508 27.6957 342.232 27.621 341.919 27.5612C341.621 27.5015 341.353 27.4717 341.115 27.4717C340.608 27.4717 340.176 27.5986 339.818 27.8525C339.476 28.1063 339.304 28.4274 339.304 28.8156C339.304 29.0247 339.364 29.2188 339.483 29.398C339.602 29.5622 339.766 29.6966 339.975 29.8012C340.183 29.8907 340.422 29.9355 340.69 29.9355C340.943 29.9355 341.204 29.8982 341.472 29.8236C341.755 29.7339 341.994 29.622 342.187 29.4876Z" fill="#F6F6F6"/>
<path d="M349.241 16.4082H353.488V28.0781C353.488 28.5112 353.577 28.8471 353.756 29.086C353.95 29.3101 354.225 29.4221 354.583 29.4221C354.762 29.4221 354.955 29.3922 355.164 29.3324C355.372 29.2727 355.566 29.1906 355.745 29.086L356.281 32.2219C355.775 32.4608 355.201 32.6475 354.56 32.7819C353.935 32.9163 353.339 32.9835 352.772 32.9835C351.64 32.9835 350.768 32.6923 350.158 32.1099C349.547 31.5127 349.241 30.669 349.241 29.5788V16.4082Z" fill="#F6F6F6"/>
<path d="M363.064 32.9818C362.021 32.9818 361.097 32.8176 360.292 32.4891C359.488 32.1606 358.81 31.7126 358.258 31.1451C357.722 30.5627 357.312 29.9057 357.029 29.174C356.761 28.4423 356.627 27.6732 356.627 26.8669C356.627 26.0605 356.761 25.2915 357.029 24.5598C357.312 23.8131 357.722 23.1561 358.258 22.5887C358.81 22.0213 359.488 21.5732 360.292 21.2447C361.097 20.9162 362.021 20.752 363.064 20.752C364.122 20.752 365.045 20.9162 365.835 21.2447C366.64 21.5732 367.31 22.0213 367.847 22.5887C368.398 23.1561 368.808 23.8131 369.076 24.5598C369.359 25.2915 369.5 26.0605 369.5 26.8669C369.5 27.6732 369.359 28.4423 369.076 29.174C368.808 29.9057 368.398 30.5627 367.847 31.1451C367.31 31.7126 366.64 32.1606 365.835 32.4891C365.045 32.8176 364.122 32.9818 363.064 32.9818ZM360.985 26.8669C360.985 27.3895 361.075 27.845 361.253 28.2332C361.432 28.6065 361.678 28.8978 361.991 29.1068C362.304 29.301 362.661 29.398 363.064 29.398C363.466 29.398 363.824 29.301 364.136 29.1068C364.449 28.8978 364.695 28.6065 364.874 28.2332C365.053 27.845 365.142 27.3895 365.142 26.8669C365.142 26.3442 365.053 25.8963 364.874 25.523C364.695 25.1347 364.449 24.8435 364.136 24.6494C363.824 24.4404 363.466 24.3358 363.064 24.3358C362.661 24.3358 362.304 24.4404 361.991 24.6494C361.678 24.8435 361.432 25.1347 361.253 25.523C361.075 25.8963 360.985 26.3442 360.985 26.8669Z" fill="#F6F6F6"/>
<path d="M364.814 0L373 1.79293e-07V8.20348C373 12.7341 369.335 16.407 364.814 16.407H358.855L363.154 12.0992H364.781C366.943 12.0992 368.696 10.3426 368.696 8.17583V4.25242H364.781C362.619 4.25242 360.866 6.00899 360.866 8.17583V9.95277L356.629 14.1995V8.20348C356.629 3.67282 360.294 -9.9021e-08 364.814 0Z" fill="#16A882"/>
<g style="mix-blend-mode:darken">
<path d="M108.817 28.2576C108.813 28.3424 108.827 28.3853 108.86 28.3803C108.997 28.3593 109.257 28.0818 109.45 27.7552C109.671 27.3451 110.176 26.9511 111.076 26.5165C111.785 26.1507 113.349 25.4561 114.538 24.9378C115.727 24.4194 117.451 23.7203 118.363 23.3632C119.293 23.0031 120.23 22.6818 120.92 22.5962L120.486 23.0587C120.245 23.3332 119.346 24.045 118.452 24.657C117.578 25.2659 115.924 26.3109 114.778 26.9812C113.651 27.6486 112.213 28.3832 111.605 28.6148C110.615 28.9839 110.455 28.9885 109.755 28.7387C109.183 28.5291 108.941 28.5263 108.709 28.7203C108.687 28.7402 108.66 28.7782 108.629 28.8322L108.817 28.2576Z" fill="#16A882"/>
<path d="M107.981 29.9453C107.937 30.0775 107.894 30.2062 107.852 30.3308L108.051 30.8609C108.105 30.7518 108.147 30.6866 108.181 30.6471C108.189 30.6407 108.196 30.5944 108.204 30.5885C108.25 30.4493 108.258 30.3436 108.292 30.2039C108.294 29.9439 108.49 29.2139 108.833 28.2302C109.243 27.0582 109.749 25.9905 109.951 25.8606C110.206 25.683 110.526 25.6738 111.048 25.8119C111.632 25.9605 111.929 25.9348 112.532 25.6645C112.947 25.4823 113.945 24.8941 114.743 24.3165C115.545 23.7582 116.845 22.7673 117.629 22.0928C118.417 21.4377 119.318 20.6066 119.607 20.2456L120.172 19.5847C119.328 19.7137 118.585 19.9857 117.965 20.2784C117.348 20.5905 115.742 21.4103 114.425 22.1464C113.104 22.8631 111.697 23.6723 111.313 23.929C110.952 24.2021 110.574 24.6362 110.516 24.9225C110.457 25.2087 110.292 25.4519 110.194 25.4669C110.076 25.4849 110.053 25.3298 110.151 25.0376C110.252 24.7647 110.556 24.1041 110.836 23.5463C111.132 22.9662 111.291 22.4071 111.215 22.2998C111.136 22.1732 111.211 21.7259 111.373 21.3248C111.672 20.6254 111.646 20.3124 110.869 15.1614C110.411 12.1806 109.963 9.53508 109.844 9.27581C109.726 9.01655 109.591 8.91829 109.546 9.02416C109.485 9.15241 109.369 10.0022 109.286 10.9458C109.204 11.8895 109.146 13.6813 109.129 14.932C109.131 16.1796 109.253 18.1024 109.393 19.1905C109.643 21.0342 109.706 21.1832 110.228 21.5986C110.546 21.8473 110.838 22.1988 110.889 22.4089C110.957 22.5967 110.829 23.0917 110.625 23.4794C110.438 23.8448 109.991 24.765 109.678 25.5061C109.362 26.2278 109.001 26.7782 108.911 26.7127C108.802 26.6502 108.832 26.3088 108.98 25.9494C109.187 25.4424 109.175 25.0877 108.926 24.0757C108.745 23.3902 107.982 21.07 107.201 18.8914C106.438 16.7097 105.623 14.7145 105.398 14.4121L104.999 13.8788C105.077 16.462 105.347 18.3027 105.843 20.5845C106.251 22.5428 106.791 24.58 107.031 25.1179C107.352 25.8018 107.647 26.1727 108.119 26.378C108.465 26.5432 108.788 26.8306 108.817 27.0243C108.842 27.1987 108.474 28.5227 107.981 29.9453Z" fill="#16A882"/>
<path d="M120.798 8.3954C120.877 8.3834 120.597 8.94115 120.175 9.61978C119.755 10.3178 118.812 11.8286 118.077 12.9711C117.341 14.1136 116.163 15.7991 115.449 16.6807C114.738 17.5817 114.047 18.3411 113.929 18.3591C113.791 18.3801 113.43 18.7918 113.159 19.2691C112.868 19.7493 112.63 20.1818 112.639 20.24C112.647 20.2981 112.939 19.9565 113.291 19.4866C113.792 18.796 114.518 18.2691 117.052 16.7926C118.792 15.7938 120.797 14.6755 121.506 14.3096C122.235 13.9408 122.95 13.6137 123.107 13.5897C123.34 13.5343 123.334 13.6342 123.065 13.9922C122.884 14.2577 122.024 15.1022 121.133 15.8722C120.239 16.6228 118.586 17.945 117.443 18.7733C116.303 19.621 115.013 20.4122 114.593 20.5557C114.152 20.7022 113.636 20.7414 113.403 20.6581C113.17 20.5749 112.808 20.5707 112.6 20.6618C112.393 20.753 112.051 21.1617 111.831 21.5718C111.61 21.982 111.411 22.2698 111.383 22.2147C111.335 22.1626 111.788 21.2812 112.375 20.2208C113.046 19.0486 113.423 18.1986 113.347 17.9527C113.277 17.7455 113.318 17.2044 113.432 16.7511C113.546 16.2979 113.903 15.4509 114.219 14.8677C114.535 14.2846 115.308 13.2554 115.932 12.5855C116.559 11.935 117.867 10.7249 118.851 9.90121C119.837 9.09686 120.719 8.40739 120.798 8.3954Z" fill="#16A882"/>
</g>
<path d="M262.104 20.6559C261.866 21.5313 261.711 22.4393 261.375 23.2755C260.661 25.05 259.226 26.1731 257.65 27.1461C255.97 28.1813 254.138 28.8696 252.295 29.5343C250.788 30.0778 249.295 30.6641 247.767 31.1343C246.215 31.6166 244.724 32.276 243.324 33.0996C242.388 33.6452 241.401 34.1451 240.721 35.0486C240.665 35.1057 240.602 35.1554 240.534 35.1964L240.46 35.1284C240.639 34.9066 240.806 34.6796 240.999 34.4748C242.145 33.2612 243.517 32.2841 245.039 31.5986C247.775 30.3595 250.551 29.2105 253.32 28.0408C255.225 27.2356 257.037 26.2855 258.59 24.894C259.86 23.7554 260.499 22.3395 260.559 20.6308C260.618 18.9517 260.326 17.3938 259.396 15.9491C257.872 13.5831 253.353 12.0489 250.523 15.382C250.029 15.9638 249.514 16.5295 249.007 17.101C248.936 17.1627 248.862 17.2202 248.785 17.2733C248.729 16.9664 248.693 16.7224 248.637 16.4821C248.471 15.7428 248.394 14.9583 248.108 14.264C247.443 12.6574 246.112 11.8736 244.439 11.657C240.557 11.1542 238.277 14.3187 237.887 16.8984C237.703 18.1162 237.951 19.2955 238.536 20.3668C239.326 21.813 240.187 23.2215 241.017 24.6485C241.696 25.8123 242.306 27.0064 242.564 28.3454C242.638 28.7332 242.653 29.1302 242.607 29.5225L242.553 29.2327C242.54 29.2415 242.526 29.246 242.523 29.2541C242.517 29.2791 242.505 29.3023 242.488 29.3212C242.47 29.3401 242.448 29.3542 242.424 29.362V28.4837C242.406 27.9018 242.18 27.3872 241.895 26.8911L242.084 27.5476C242.057 27.522 242.032 27.4943 242.01 27.4648C241.379 26.4556 240.778 25.4264 240.111 24.4415C239.357 23.3273 238.459 22.3018 237.783 21.1454C237.24 20.216 236.933 19.1483 236.521 18.142V16.2936C236.542 16.2108 236.567 16.1287 236.584 16.0444C237.004 13.9831 238.019 12.2906 239.717 11.0307C240.636 10.3483 241.702 10.0148 242.806 9.78711H244.729C244.919 9.83443 245.108 9.88545 245.299 9.92833C246.778 10.2603 248.04 10.9516 248.962 12.1797C249.27 12.5886 249.523 13.0381 249.798 13.467C249.817 13.467 249.832 13.467 249.841 13.4625C249.881 13.4352 249.922 13.4078 249.96 13.3768C251.557 12.0459 253.387 11.5468 255.437 11.8463C258.607 12.3106 261.08 14.5472 261.852 17.6533C261.965 18.1051 262.022 18.5701 262.104 19.0293V20.6559ZM241.702 10.3978C243.5 9.97491 245.234 10.1368 246.912 10.9021C245.242 10.0089 243.499 9.86548 241.702 10.3978Z" fill="#16A882"/>
<g style="mix-blend-mode:darken">
<path d="M8.05916 28.2576C8.05564 28.3424 8.06944 28.3853 8.10178 28.3803C8.23924 28.3593 8.49965 28.0818 8.69262 27.7552C8.91349 27.3451 9.41781 26.9511 10.3177 26.5165C11.027 26.1507 12.5914 25.4561 13.7802 24.9378C14.969 24.4194 16.6934 23.7203 17.6047 23.3632C18.5357 23.0031 19.4723 22.6818 20.1624 22.5962L19.7284 23.0587C19.4876 23.3332 18.5883 24.045 17.6943 24.657C16.82 25.2659 15.1665 26.3109 14.0201 26.9812C12.8933 27.6486 11.4552 28.3832 10.8467 28.6148C9.85688 28.9839 9.69692 28.9885 8.99767 28.7387C8.42478 28.5291 8.18345 28.5263 7.95093 28.7203C7.92881 28.7402 7.90204 28.7782 7.87146 28.8322L8.05916 28.2576Z" fill="#16A882"/>
<path d="M7.22273 29.9453C7.1794 30.0775 7.13639 30.2062 7.09397 30.3308L7.29356 30.8609C7.34679 30.7518 7.38924 30.6866 7.42324 30.6471C7.43092 30.6407 7.43865 30.5944 7.44636 30.5885C7.49235 30.4493 7.49978 30.3436 7.53391 30.2039C7.53642 29.9439 7.73198 29.2139 8.07516 28.2302C8.48531 27.0582 8.99108 25.9905 9.19287 25.8606C9.44788 25.683 9.76776 25.6738 10.29 25.8119C10.874 25.9605 11.1714 25.9348 11.7742 25.6645C12.1891 25.4823 13.187 24.8941 13.9856 24.3165C14.787 23.7582 16.0871 22.7673 16.8715 22.0928C17.6587 21.4377 18.5606 20.6066 18.8489 20.2456L19.4145 19.5847C18.5701 19.7137 17.827 19.9857 17.2074 20.2784C16.5906 20.5905 14.9843 21.4103 13.6669 22.1464C12.3466 22.8631 10.9395 23.6723 10.5556 23.929C10.1942 24.2021 9.81618 24.6362 9.75783 24.9225C9.69948 25.2087 9.5344 25.4519 9.43622 25.4669C9.31839 25.4849 9.29562 25.3298 9.39325 25.0376C9.49373 24.7647 9.79827 24.1041 10.0778 23.5463C10.3741 22.9662 10.5329 22.4071 10.4569 22.2998C10.3781 22.1732 10.4529 21.7259 10.6149 21.3248C10.9137 20.6254 10.8879 20.3124 10.1114 15.1614C9.65356 12.1806 9.20485 9.53508 9.08647 9.27581C8.96808 9.01655 8.83319 8.91829 8.7885 9.02416C8.72702 9.15241 8.61087 10.0022 8.52859 10.9458C8.44631 11.8895 8.38818 13.6813 8.37106 14.932C8.37357 16.1796 8.49531 18.1024 8.63501 19.1905C8.88567 21.0342 8.94772 21.1832 9.47051 21.5986C9.78811 21.8473 10.0807 22.1988 10.1316 22.4089C10.1993 22.5967 10.0712 23.0917 9.86717 23.4794C9.67989 23.8448 9.23275 24.765 8.91994 25.5061C8.6043 26.2278 8.24342 26.7782 8.15348 26.7127C8.04392 26.6502 8.07409 26.3088 8.22209 25.9494C8.42873 25.4424 8.4168 25.0877 8.16781 24.0757C7.98683 23.3902 7.22447 21.07 6.44275 18.8914C5.68068 16.7097 4.86567 14.7145 4.64056 14.4121L4.241 13.8788C4.31917 16.462 4.58947 18.3027 5.08516 20.5845C5.4932 22.5428 6.0333 24.58 6.27291 25.1179C6.5942 25.8018 6.8896 26.1727 7.36146 26.378C7.70695 26.5432 8.03025 26.8306 8.0587 27.0243C8.08431 27.1987 7.71656 28.5227 7.22273 29.9453Z" fill="#16A882"/>
<path d="M20.0401 8.3954C20.1187 8.3834 19.8392 8.94115 19.4168 9.61978C18.9973 10.3178 18.0546 11.8286 17.3189 12.9711C16.5832 14.1136 15.4052 15.7991 14.6914 16.6807C13.9804 17.5817 13.2888 18.3411 13.171 18.3591C13.0335 18.3801 12.6723 18.7918 12.4011 19.2691C12.1102 19.7493 11.8726 20.1818 11.8811 20.24C11.8896 20.2981 12.1808 19.9565 12.5334 19.4866C13.0344 18.796 13.7601 18.2691 16.2939 16.7926C18.0346 15.7938 20.0388 14.6755 20.748 14.3096C21.4769 13.9408 22.1918 13.6137 22.3489 13.5897C22.5817 13.5343 22.5763 13.6342 22.3076 13.9922C22.1258 14.2577 21.2659 15.1022 20.3751 15.8722C19.4815 16.6228 17.8285 17.945 16.6852 18.7733C15.5448 19.621 14.2555 20.4122 13.8349 20.5557C13.3946 20.7022 12.8783 20.7414 12.6452 20.6581C12.4122 20.5749 12.0502 20.5707 11.8427 20.6618C11.6352 20.753 11.2937 21.1617 11.0728 21.5718C10.8519 21.982 10.6533 22.2698 10.6251 22.2147C10.5773 22.1626 11.0301 21.2812 11.6173 20.2208C12.2884 19.0486 12.6655 18.1986 12.5893 17.9527C12.5187 17.7455 12.5597 17.2044 12.6738 16.7511C12.788 16.2979 13.1455 15.4509 13.4614 14.8677C13.7773 14.2846 14.5498 13.2554 15.1742 12.5855C15.8015 11.935 17.1095 10.7249 18.0929 9.90121C19.079 9.09686 19.9616 8.40739 20.0401 8.3954Z" fill="#16A882"/>
</g>
</svg>
