<svg width="43" height="25" viewBox="0 0 43 25" fill="none" xmlns="http://www.w3.org/2000/svg">
<path d="M7.31922 21.3698H4.69039V17.1824C4.69039 16.8146 4.60737 16.5505 4.44134 16.3902C4.28453 16.2204 4.10005 16.1355 3.8879 16.1355C3.74032 16.1355 3.58351 16.1827 3.41748 16.277C3.25145 16.3619 3.09925 16.4845 2.96089 16.6448C2.82253 16.8051 2.71185 16.989 2.62883 17.1965V21.3698H0V13.9286H2.36595V15.0321C2.5412 14.7586 2.76258 14.5322 3.03007 14.353C3.29757 14.1644 3.60657 14.0229 3.95708 13.9286C4.30759 13.8343 4.69039 13.7872 5.10547 13.7872C5.60356 13.7872 6.00019 13.8767 6.29536 14.0559C6.59053 14.2351 6.8119 14.4662 6.95948 14.7491C7.10707 15.0321 7.20392 15.3292 7.25004 15.6404C7.29616 15.9422 7.31922 16.2204 7.31922 16.475V21.3698Z" fill="#F6F6F6"/>
<path d="M8.59342 21.3698V13.9286H11.2223V21.3698H8.59342ZM8.59342 13.3062V11.0427H11.2223V13.3062H8.59342Z" fill="#F6F6F6"/>
<path d="M12.497 22.1196C12.7091 22.1951 12.9029 22.2516 13.0781 22.2894C13.2626 22.3365 13.4286 22.3601 13.5762 22.3601C13.7699 22.3601 13.9313 22.3224 14.0605 22.2469C14.1896 22.1809 14.2911 22.0725 14.3649 21.9216C14.4386 21.7707 14.4848 21.5867 14.5032 21.3698L11.8605 13.9286H14.5586L15.9422 18.6112L17.0629 13.9286H19.5118L17.049 22.2611C16.9107 22.7421 16.6847 23.1618 16.3711 23.5201C16.0574 23.888 15.6839 24.1709 15.2504 24.3689C14.8168 24.5764 14.351 24.6802 13.8529 24.6802C13.6223 24.6802 13.3917 24.6566 13.1611 24.6094C12.9397 24.5717 12.7184 24.5057 12.497 24.4114V22.1196Z" fill="#F6F6F6"/>
<path d="M19.6636 19.1205C19.6636 18.6206 19.7973 18.1821 20.0648 17.8048C20.3323 17.4182 20.7013 17.1164 21.1717 16.8994C21.6514 16.6825 22.1956 16.5741 22.8043 16.5741C23.0903 16.5741 23.3578 16.5976 23.6068 16.6448C23.8651 16.692 24.0865 16.7627 24.271 16.857V16.6307C24.271 16.2817 24.1695 16.0223 23.9666 15.8526C23.7729 15.6828 23.4546 15.5979 23.0119 15.5979C22.606 15.5979 22.2232 15.6687 21.8635 15.8101C21.513 15.9422 21.144 16.1402 20.7566 16.4043L19.9957 14.735C20.4845 14.4143 20.9965 14.1785 21.5314 14.0276C22.0757 13.8673 22.6568 13.7872 23.2748 13.7872C24.4278 13.7872 25.3179 14.0559 25.9451 14.5935C26.5816 15.1217 26.8998 15.9092 26.8998 16.956V18.399C26.8998 18.6536 26.9367 18.8328 27.0105 18.9366C27.0843 19.0309 27.2134 19.0875 27.3979 19.1063V21.3698C27.1857 21.417 26.9828 21.45 26.7891 21.4689C26.6046 21.4971 26.4386 21.5113 26.291 21.5113C25.8206 21.5113 25.4609 21.4264 25.2118 21.2567C24.972 21.0775 24.8152 20.8181 24.7414 20.4786L24.686 20.2098C24.3632 20.6342 23.9896 20.9596 23.5653 21.1859C23.141 21.4028 22.6891 21.5113 22.2094 21.5113C21.7298 21.5113 21.2962 21.4076 20.9088 21.2001C20.5214 20.9926 20.217 20.7096 19.9957 20.3513C19.7743 19.9834 19.6636 19.5732 19.6636 19.1205ZM23.9251 19.3044C24.0265 19.2289 24.1095 19.1488 24.1741 19.0639C24.2387 18.9696 24.271 18.8753 24.271 18.781V18.2292C24.1234 18.1727 23.9527 18.1255 23.759 18.0878C23.5746 18.0501 23.4085 18.0312 23.2609 18.0312C22.9473 18.0312 22.6798 18.1114 22.4585 18.2717C22.2463 18.432 22.1402 18.6348 22.1402 18.88C22.1402 19.012 22.1771 19.1346 22.2509 19.2478C22.3247 19.3516 22.4262 19.4364 22.5553 19.5025C22.6844 19.559 22.832 19.5873 22.9981 19.5873C23.1549 19.5873 23.3163 19.5638 23.4823 19.5166C23.6576 19.46 23.8052 19.3893 23.9251 19.3044Z" fill="#F6F6F6"/>
<path d="M28.2921 11.0427H30.921V18.4132C30.921 18.6867 30.9763 18.8989 31.087 19.0498C31.2069 19.1912 31.3776 19.262 31.5989 19.262C31.7096 19.262 31.8295 19.2431 31.9587 19.2054C32.0878 19.1676 32.2077 19.1158 32.3184 19.0498L32.6505 21.0303C32.3368 21.1812 31.9817 21.2991 31.5851 21.384C31.1977 21.4689 30.8287 21.5113 30.4782 21.5113C29.7772 21.5113 29.2376 21.3274 28.8594 20.9596C28.4812 20.5823 28.2921 20.0495 28.2921 19.361V11.0427Z" fill="#F6F6F6"/>
<path d="M36.8492 21.5113C36.2036 21.5113 35.6317 21.4076 35.1336 21.2001C34.6355 20.9926 34.2158 20.7096 33.8745 20.3513C33.5425 19.9834 33.2888 19.5685 33.1135 19.1063C32.9475 18.6442 32.8645 18.1585 32.8645 17.6492C32.8645 17.1399 32.9475 16.6542 33.1135 16.1921C33.2888 15.7205 33.5425 15.3056 33.8745 14.9472C34.2158 14.5888 34.6355 14.3059 35.1336 14.0984C35.6317 13.8909 36.2036 13.7872 36.8492 13.7872C37.5041 13.7872 38.076 13.8909 38.5649 14.0984C39.063 14.3059 39.4781 14.5888 39.8101 14.9472C40.1514 15.3056 40.4051 15.7205 40.5711 16.1921C40.7464 16.6542 40.834 17.1399 40.834 17.6492C40.834 18.1585 40.7464 18.6442 40.5711 19.1063C40.4051 19.5685 40.1514 19.9834 39.8101 20.3513C39.4781 20.7096 39.063 20.9926 38.5649 21.2001C38.076 21.4076 37.5041 21.5113 36.8492 21.5113ZM35.5625 17.6492C35.5625 17.9793 35.6178 18.267 35.7285 18.5122C35.8392 18.748 35.9914 18.9319 36.1851 19.0639C36.3788 19.1865 36.6002 19.2478 36.8492 19.2478C37.0983 19.2478 37.3197 19.1865 37.5134 19.0639C37.7071 18.9319 37.8593 18.748 37.97 18.5122C38.0806 18.267 38.136 17.9793 38.136 17.6492C38.136 17.3191 38.0806 17.0362 37.97 16.8004C37.8593 16.5552 37.7071 16.3713 37.5134 16.2487C37.3197 16.1167 37.0983 16.0506 36.8492 16.0506C36.6002 16.0506 36.3788 16.1167 36.1851 16.2487C35.9914 16.3713 35.8392 16.5552 35.7285 16.8004C35.6178 17.0362 35.5625 17.3191 35.5625 17.6492Z" fill="#F6F6F6"/>
<path d="M37.9327 0.680176L43 0.680176V5.86132C43 8.72279 40.7313 11.0425 37.9327 11.0425H34.2437L36.9046 8.32179H37.9121C39.2505 8.32179 40.3356 7.21238 40.3356 5.84386V3.36592H37.9121C36.5736 3.36592 35.4886 4.47533 35.4886 5.84386V6.96616L32.8654 9.64829V5.86132C32.8654 2.99985 35.1341 0.680176 37.9327 0.680176Z" fill="#F6F6F6"/>
</svg>
