<svg width="93" height="64" viewBox="0 0 93 64" fill="none" xmlns="http://www.w3.org/2000/svg">
<path d="M1.87134 46.5264H1.92801C2.24268 46.4763 2.56328 46.4763 2.87795 46.5264C4.17788 46.6331 5.50448 46.7164 6.77774 46.4297C8.051 46.1431 9.2876 45.4298 9.91424 44.2799C10.3174 43.4933 10.4764 42.6042 10.3709 41.7267C10.2276 40.2368 9.56092 38.8235 8.91429 37.4936C6.28407 32.084 4.03754 26.4961 2.19132 20.7712C0.738071 16.2715 -0.808511 10.7518 1.59802 6.32209C3.55458 2.74563 7.15439 0.539091 11.1708 0.0557861H89.9799C90.3534 0.182448 90.6888 0.401752 90.9546 0.693202C91.2204 0.984653 91.408 1.33873 91.4998 1.72236C91.8331 3.05561 89.9999 3.88889 89.9999 3.88889H40.7559C35.1695 3.88889 29.5865 3.79557 24.0035 3.7689C19.597 3.74557 15.0773 3.00561 10.8175 4.50219C7.42437 5.69546 4.37787 8.58862 4.09789 12.1684C3.9379 14.2216 4.67452 16.2248 5.40115 18.1681L13.1074 38.6569C13.744 40.3501 14.3907 42.1433 14.074 43.9199C13.674 46.1631 11.7408 47.9196 9.58759 48.6329C7.43437 49.3462 4.92118 49.1996 2.6913 48.6796C2.27675 48.6097 1.88417 48.4443 1.54469 48.1963C1.37328 48.0669 1.24691 47.8869 1.1835 47.6817C1.12009 47.4765 1.12285 47.2566 1.19138 47.053C1.2584 46.9202 1.35422 46.804 1.47185 46.7129C1.58948 46.6218 1.72596 46.5581 1.87134 46.5264Z" fill="#495CB5"/>
<path d="M3.43165 56.5771C7.98806 58.2437 13.1544 58.477 17.9008 57.6204C25.4138 56.2671 30.4235 50.9875 28.6936 43.0912C27.0603 35.6117 22.2373 29.182 20.1874 21.8058C19.5974 19.6759 19.2741 17.2694 20.3807 15.3562C22.4573 11.7664 28.6269 11.2031 32.2934 10.8664C37.7564 10.3664 43.2428 10.8898 48.7124 10.8898H87.0636C87.4669 10.8898 92.8833 10.5764 93 10.8898C93 10.8898 92 8.22324 87.0003 6.88998H36.9231C34.0899 6.88998 31.2568 7.00997 28.4236 6.88998C25.4638 6.77332 22.3773 6.53333 19.5907 7.74993C12.8111 10.7231 12.3378 19.3559 14.6944 25.3889C17.1909 31.7886 22.1273 37.6982 22.8539 44.6945C23.2872 48.8709 21.4973 53.2673 17.3209 54.6939C15.0877 55.4572 12.6745 55.4405 10.3213 55.4705C7.96806 55.5005 5.53153 55.6005 3.38165 56.5705L3.43165 56.5771Z" fill="#495CB5"/>
<path d="M39.769 44.1223C38.2458 42.5757 37.1758 40.4559 36.0059 38.666L29.3363 28.5532C27.1764 25.2801 27.4664 21.277 30.9728 19.0838C33.0894 17.7505 35.1226 18.2205 37.4358 18.2205H89.6662C89.6662 26.4133 89.6862 34.6062 89.6662 42.8024C89.6662 42.9857 84.8798 42.7657 84.5332 42.7557C83.4466 42.7291 82.3299 42.6424 81.2433 42.7157C79.6834 42.819 79.4334 43.5757 78.8001 44.9489C77.9702 46.7522 76.1103 47.9654 74.1337 48.2821C72.1572 48.5987 70.134 48.0921 68.3941 47.1488C66.5642 46.1489 64.9376 44.6823 62.8977 44.2756C61.1245 43.9223 59.2846 44.449 57.6513 45.2289C56.2514 45.8955 54.9448 46.9521 53.4949 47.4888C52.215 47.9654 50.6917 47.9588 49.3285 47.8854C46.2353 47.7221 42.9188 46.7455 40.4823 44.7789C40.2328 44.5732 39.9946 44.354 39.769 44.1223Z" fill="#495CB5"/>
<path d="M89.52 51.6827L89.56 51.6627C91.4766 50.6627 91.1733 47.7896 89.2267 46.9963C88.6912 46.8096 88.1272 46.7182 87.5601 46.7263C83.5037 46.5863 79.0606 47.4596 76.4474 50.5661C75.6441 51.5227 74.9775 52.7059 73.8209 53.1726C69.8545 54.7658 66.7313 48.5628 63.5382 47.2496C62.6642 46.8992 61.7228 46.749 60.7832 46.8102C59.8436 46.8713 58.9296 47.1422 58.1085 47.6029C55.8319 48.9095 54.3453 51.6527 51.7555 52.0893C49.8823 52.4226 48.059 51.366 46.5524 50.2127C45.0459 49.0595 43.586 47.7096 41.7461 47.2363C40.8094 46.9963 39.7462 47.0196 38.9462 47.5696C38.1463 48.1195 37.7429 49.2828 38.2496 50.1094C38.8496 51.086 40.2161 51.1094 41.3227 51.4127C43.7459 52.0793 45.2959 54.4358 47.4957 55.6558C48.4458 56.1603 49.4946 56.4515 50.5688 56.5091C51.643 56.5666 52.7168 56.3892 53.7154 55.9891C55.8953 55.1258 57.1552 53.0093 59.4151 52.2593C63.0015 51.0527 67.1213 53.0059 69.6678 55.5524C71.3044 57.189 74.4109 57.0157 76.4441 56.4291C79.5173 55.5391 80.8838 52.096 84.2837 51.886C85.1751 51.885 86.0658 51.9407 86.9502 52.0526C87.8244 52.1567 88.7106 52.0291 89.52 51.6827Z" fill="#495CB5"/>
<path d="M64.0014 55.3846C60.1483 54.628 56.0352 56.2746 53.3353 59.2277C50.3355 59.2277 47.1957 59.771 44.5991 58.0111C43.5059 57.2678 42.3726 56.4312 41.0527 56.3446C38.9495 56.2212 36.9629 57.9245 35.5896 59.3444C34.923 60.011 34.6197 61.0976 33.9597 61.7276C33.0598 62.5775 31.6899 62.6375 30.5199 62.6375L2.33812 62.5809C1.88147 62.5809 1.28817 62.6909 1.22484 63.1442C1.15151 63.6808 1.89147 63.8908 2.43811 63.8908C15.5774 63.8908 28.7189 63.8908 41.8626 63.8908C57.584 63.8908 73.3076 63.9086 89.0334 63.9441C89.3391 62.0567 89.1976 60.1239 88.6201 58.3011C88.4174 57.5127 87.9997 56.7961 87.4135 56.2312C86.5335 55.4913 85.2469 55.4079 84.1403 55.7213C83.0337 56.0346 82.0638 56.6912 81.1038 57.3212C78.4373 59.0844 75.2175 60.7976 72.1676 59.811C70.2578 59.1944 68.8345 57.6245 67.1113 56.5846C66.1534 56.0045 65.1006 55.5983 64.0014 55.3846Z" fill="#495CB5"/>
<path d="M60.7577 34.9913C61.231 35.5346 61.9176 35.4712 62.4743 35.1012C62.6527 34.9784 62.82 34.8401 62.9742 34.6879C63.239 34.3469 63.5263 34.024 63.8342 33.7213C66.0074 33.7213 67.884 34.0546 70.0572 34.0546H73.4836C74.4836 34.0546 75.7568 34.3313 76.5668 33.6647L79.9766 30.8648C80.2318 30.6783 80.4567 30.4534 80.6432 30.1982C80.7335 30.0719 80.7932 29.9264 80.8175 29.7731C80.8418 29.6198 80.83 29.4629 80.7832 29.3149C80.5232 28.6216 79.3066 28.3983 78.6933 28.6483C78.431 28.7885 78.2033 28.9855 78.0267 29.2249L76.9901 30.4315C76.7705 30.7295 76.4869 30.9744 76.1601 31.1481C75.6768 31.3648 75.1969 31.2281 74.7002 31.1481C74.2036 31.0682 73.6669 31.0482 73.1503 30.9915C72.057 30.8748 70.9638 30.7648 69.8672 30.7082C69.4672 30.6848 67.1007 30.7782 66.8673 30.3915C65.5008 28.055 66.0174 26.6684 65.0008 26.4751C64.4775 26.3784 64.0008 26.7851 63.5875 27.0984C61.4243 28.6716 57.7745 27.9617 55.228 27.9617C53.3948 27.9617 51.4816 28.1217 49.6517 27.9617C48.8317 27.8883 47.7451 28.0717 47.2485 28.7916C46.9585 29.2083 46.8252 29.9982 47.1285 30.4249C47.5726 31.0139 48.1302 31.508 48.7684 31.8781C49.0565 32.0804 49.3798 32.2274 49.7217 32.3114C50.1187 32.3592 50.5192 32.3703 50.9183 32.3447H57.5845C57.9179 32.3447 58.2278 32.3447 58.5478 32.3447L60.7577 34.9913Z" fill="#FCFCFC"/>
</svg>
